<svg width="32" height="32" viewBox="0 0 32 32" fill="none" xmlns="http://www.w3.org/2000/svg">
<path d="M27 4H5C4.44772 4 4 4.44772 4 5V27C4 27.5523 4.44772 28 5 28H27C27.5523 28 28 27.5523 28 27V5C28 4.44772 27.5523 4 27 4Z" stroke="black" stroke-width="2" stroke-linecap="round" stroke-linejoin="round"/>
<path d="M15 14V22" stroke="black" stroke-width="2" stroke-linecap="round" stroke-linejoin="round"/>
<path d="M11 14V22" stroke="black" stroke-width="2" stroke-linecap="round" stroke-linejoin="round"/>
<path d="M15 17.5C15 16.5717 15.3687 15.6815 16.0251 15.0251C16.6815 14.3687 17.5717 14 18.5 14C19.4283 14 20.3185 14.3687 20.9749 15.0251C21.6313 15.6815 22 16.5717 22 17.5V22" stroke="black" stroke-width="2" stroke-linecap="round" stroke-linejoin="round"/>
<path d="M11 9.0625C11.7939 9.0625 12.4375 9.70609 12.4375 10.5C12.4375 11.2939 11.7939 11.9375 11 11.9375C10.2061 11.9375 9.5625 11.2939 9.5625 10.5C9.5625 9.70609 10.2061 9.0625 11 9.0625Z" fill="black" stroke="black" stroke-width="0.125"/>
</svg>
