<svg width="93" height="93" viewBox="0 0 93 93" fill="none" xmlns="http://www.w3.org/2000/svg">
<path d="M46.5 93C72.1812 93 93 72.1812 93 46.5C93 20.8188 72.1812 0 46.5 0C20.8188 0 0 20.8188 0 46.5C0 72.1812 20.8188 93 46.5 93Z" fill="#FF0002"/>
<path d="M70.8341 41.4785C69.4173 40.0434 67.3876 39.2727 64.922 39.2727C61.857 39.2727 59.4867 40.4952 58.1245 42.7673V31.4463H51V62.4463H58.1245V51.5504C58.1245 48.9992 58.6694 47.3781 59.4595 46.4215C60.2496 45.4647 61.3258 45.0926 62.5109 45.0926C63.5598 45.0926 64.3908 45.4116 64.9629 46.0095C65.5351 46.6207 65.8755 47.5509 65.8755 48.853V62.433H73V47.4978C73 44.9598 72.2372 42.9002 70.8204 41.4651L70.8341 41.4785Z" fill="white"/>
<path d="M38.922 39.2727C35.857 39.2727 33.4867 40.4952 32.1245 42.7673V31.4463H25V62.4463H32.1245V51.5504C32.1245 48.9992 32.6693 47.3781 33.4595 46.4215C34.2495 45.4647 35.3257 45.0926 36.5108 45.0926C37.5598 45.0926 38.3907 45.4116 38.9629 46.0095C39.535 46.6207 39.8755 47.5509 39.8755 48.853V62.433H47V47.4978C47 44.9598 46.2371 42.9002 44.8204 41.4651C43.4037 40.0301 41.374 39.2594 38.9083 39.2594L38.922 39.2727Z" fill="white"/>
</svg>
