<svg width="300" height="50" viewBox="0 0 300 50" fill="none" xmlns="http://www.w3.org/2000/svg">
<path d="M134.141 14.5035L140.392 9.83154H119.458V37.8207H140.392V33.1449H125.437V26.0011H138.219V21.3291H125.437V14.5035H134.141Z" fill="#21A038"/>
<path d="M103.641 20.7315H96.3887V14.5035H107.991L114.246 9.83154H90.409V37.8207H102.869C109.85 37.8207 113.881 34.6117 113.881 29.0239C113.881 23.6651 110.257 20.7315 103.641 20.7315ZM102.644 33.1449H96.3887V25.4035H102.644C106.45 25.4035 108.216 26.6879 108.216 29.2994C108.216 31.9109 106.315 33.1449 102.644 33.1449Z" fill="#21A038"/>
<path d="M157.342 9.83154H145.968V37.8207H151.948V29.8931H157.388C164.637 29.8931 169.169 26.0477 169.169 19.8623C169.169 13.677 164.637 9.83154 157.342 9.83154ZM157.206 25.2211H151.905V14.5035H157.206C161.059 14.5035 163.143 16.4282 163.143 19.8623C163.143 23.2965 161.059 25.2211 157.206 25.2211Z" fill="#21A038"/>
<path d="M80.1648 31.7712C78.5816 32.6443 76.8121 33.1022 75 33.1022C69.6063 33.1022 65.7104 29.2063 65.7104 23.8475C65.7104 18.4887 69.6063 14.5928 75 14.5928C76.9479 14.5501 78.8532 15.1903 80.4364 16.335L84.7436 13.1299L84.472 12.8543C81.9808 10.6076 78.6243 9.46289 74.8176 9.46289C70.6966 9.46289 66.9327 10.8831 64.2164 13.448C61.4963 16.1061 59.9557 19.8157 60.045 23.6651C59.9984 27.5571 61.4963 31.3133 64.2164 34.0606C67.0685 36.7652 70.8751 38.2786 74.7749 38.1855C79.0783 38.1855 82.8384 36.6721 85.3761 33.9248L81.5268 31.0378L80.1648 31.7712Z" fill="#21A038"/>
<path d="M241.088 9.87811V37.8634H247.068V26.4124H259.803V37.8634H265.787V9.87811H259.803V21.3757H247.068V9.87811H241.088ZM230.801 37.8634H237.099L225.407 9.87811H219.335L207.418 37.8634H213.444L215.846 32.2291H228.535L230.801 37.8634ZM217.658 27.5571L222.28 16.3351L226.63 27.5571H217.658ZM279.201 26.5521H282.915L292.068 37.8207H299.771L287.536 23.343L298.231 9.83154H291.389L282.507 21.8336H279.201V9.83154H273.218V37.8207H279.201V26.5521ZM187.659 20.7781V14.5501H203.293V9.87811H181.676V37.8634H194.139C201.116 37.8634 205.152 34.6582 205.152 29.0705C205.152 23.7117 201.528 20.7781 194.908 20.7781H187.659ZM187.659 33.1914V25.4501H193.914C197.717 25.4501 199.486 26.7345 199.486 29.346C199.486 31.9575 197.628 33.238 193.914 33.238H187.659V33.1914Z" fill="#21A038"/>
<path d="M41.3299 9.64893C42.4164 11.0691 43.3245 12.6252 44.0928 14.2743L23.1581 29.8929L14.3652 24.3051V17.6192L23.1116 23.1604L41.3299 9.64893Z" fill="#21A038"/>
<path d="M5.4364 23.8475C5.4364 23.5255 5.4364 23.2538 5.48297 22.9318L0.182368 22.6562C0.182368 23.0249 0.135803 23.4362 0.135803 23.801C0.135803 30.2152 2.72014 36.0319 6.88767 40.246L10.6478 36.4432C7.43092 33.238 5.4364 28.795 5.4364 23.8475Z" fill="url(#paint0_linear_231_992)"/>
<path d="M23.1115 5.98185C23.4297 5.98185 23.7014 5.98185 24.0195 6.02842L24.2912 0.66961C23.9264 0.66961 23.519 0.623047 23.1581 0.623047C16.8137 0.623047 11.0591 3.23454 6.88766 7.44864L10.6478 11.2514C13.8219 7.99965 18.2611 5.98185 23.1115 5.98185Z" fill="url(#paint1_linear_231_992)"/>
<path d="M23.1116 41.7124C22.7934 41.7124 22.5217 41.7124 22.2035 41.6659L21.9319 47.0247C22.2967 47.0247 22.7041 47.0712 23.065 47.0712C29.4094 47.0712 35.1679 44.4597 39.3354 40.2456L35.5753 36.4429C32.4012 39.7412 28.0047 41.7124 23.1116 41.7124Z" fill="url(#paint2_linear_231_992)"/>
<path d="M33.0802 9.09798L37.566 5.75309C33.6235 2.54789 28.5945 0.57666 23.1115 0.57666V5.93547C26.8289 5.98203 30.2708 7.12674 33.0802 9.09798Z" fill="url(#paint3_linear_231_992)"/>
<path d="M46.1338 23.8472C46.1338 22.427 45.998 21.0533 45.7691 19.6797L40.8294 23.3893C40.8294 23.5251 40.8294 23.7114 40.8294 23.8472C40.8294 29.1168 38.5632 33.8353 34.9855 37.0871L38.5632 41.0722C43.1886 36.8581 46.1338 30.6728 46.1338 23.8472Z" fill="#21A038"/>
<path d="M23.1115 41.7126C17.9002 41.7126 13.2321 39.4231 10.0153 35.8027L6.07278 39.4231C10.2869 44.1417 16.3597 47.0714 23.1115 47.0714V41.7126Z" fill="url(#paint4_linear_231_992)"/>
<path d="M11.2841 10.6072L7.70255 6.62207C3.03445 10.8827 0.135803 17.0215 0.135803 23.8471H5.4364C5.4364 18.6241 7.70255 13.8629 11.2841 10.6072Z" fill="url(#paint5_linear_231_992)"/>
<defs>
<linearGradient id="paint0_linear_231_992" x1="6.32242" y1="39.5945" x2="0.878484" y2="23.7871" gradientUnits="userSpaceOnUse">
<stop offset="0.1444" stop-color="#F2E913"/>
<stop offset="0.3037" stop-color="#E7E518"/>
<stop offset="0.5823" stop-color="#CADB26"/>
<stop offset="0.891" stop-color="#A3CD39"/>
</linearGradient>
<linearGradient id="paint1_linear_231_992" x1="8.39958" y1="6.8437" x2="22.1545" y2="1.57817" gradientUnits="userSpaceOnUse">
<stop offset="0.0592" stop-color="#0FA8E0"/>
<stop offset="0.5385" stop-color="#0099F9"/>
<stop offset="0.9234" stop-color="#0291EB"/>
</linearGradient>
<linearGradient id="paint2_linear_231_992" x1="21.6222" y1="42.5135" x2="38.0121" y2="38.7925" gradientUnits="userSpaceOnUse">
<stop offset="0.1226" stop-color="#A3CD39"/>
<stop offset="0.2846" stop-color="#86C339"/>
<stop offset="0.8693" stop-color="#21A038"/>
</linearGradient>
<linearGradient id="paint3_linear_231_992" x1="22.0224" y1="3.99116" x2="35.6527" y2="8.21582" gradientUnits="userSpaceOnUse">
<stop offset="0.0566" stop-color="#0291EB"/>
<stop offset="0.79" stop-color="#0C8ACB"/>
</linearGradient>
<linearGradient id="paint4_linear_231_992" x1="7.42065" y1="40.2709" x2="22.0644" y2="45.7672" gradientUnits="userSpaceOnUse">
<stop offset="0.1324" stop-color="#F2E913"/>
<stop offset="0.2977" stop-color="#EBE716"/>
<stop offset="0.5306" stop-color="#D9E01F"/>
<stop offset="0.8023" stop-color="#BBD62D"/>
<stop offset="0.9829" stop-color="#A3CD39"/>
</linearGradient>
<linearGradient id="paint5_linear_231_992" x1="4.19853" y1="24.4946" x2="10.0831" y2="9.11721" gradientUnits="userSpaceOnUse">
<stop offset="0.0698" stop-color="#A3CD39"/>
<stop offset="0.2599" stop-color="#81C55F"/>
<stop offset="0.9216" stop-color="#0FA8E0"/>
</linearGradient>
</defs>
</svg>
