<svg width="295" height="53" viewBox="0 0 295 53" fill="none" xmlns="http://www.w3.org/2000/svg">
<g clip-path="url(#clip0_231_935)">
<path d="M0 3.26807V44.9861C0 47.3171 1.90236 49.2195 4.23342 49.2195H16.9605C18.193 49.407 19.3183 50.1305 20.015 51.1754L20.6848 52.1936L21.3547 51.1754C22.0513 50.1305 23.1499 49.407 24.3824 49.2195H36.8147C39.1458 49.2195 41.0481 47.3171 41.0481 44.9861V3.26807H0ZM36.8415 47.5851H24.3556H24.2484C22.9087 47.7994 21.6494 48.4425 20.7116 49.4338C19.7738 48.4693 18.4877 47.7994 17.148 47.5851H4.23342C2.78656 47.5851 1.63442 46.4329 1.63442 44.9861V4.90246H39.4405V44.9861C39.4405 46.4329 38.2884 47.5851 36.8415 47.5851Z" fill="white"/>
<path d="M19.5862 28.2939C19.613 28.3207 19.6398 28.3475 19.6666 28.3743L19.5862 28.2939ZM14.0935 36.0909C16.0227 34.1886 17.9518 32.2594 19.881 30.3303C19.9078 30.3035 19.9346 30.2767 19.9614 30.2499L14.0935 36.0909Z" fill="white"/>
<path d="M35.0726 21.9435C34.8582 19.9072 33.4113 18.5943 31.375 18.4871C30.8123 18.4603 30.7588 18.3799 30.732 17.8441C30.6516 16.3168 29.9549 15.1379 28.5349 14.4948C27.1416 13.8518 25.8018 14.0393 24.5693 14.9771C24.4622 15.0575 24.355 15.1378 24.2478 15.2182C24.1138 15.1111 23.9799 15.0307 23.7923 14.8967C23.578 15.7541 23.3636 16.5311 23.1225 17.4153C24.0335 17.1742 24.8105 16.9598 25.6411 16.7455C25.5071 16.5579 25.4267 16.424 25.3196 16.3168C26.0966 15.3254 27.9722 15.513 28.4009 16.2364C27.5703 16.3168 26.8737 16.6919 26.2841 17.2546C26.1234 17.1474 26.0162 17.0402 25.8286 16.9063C25.6143 17.7369 25.3999 18.5139 25.1856 19.3177C25.2124 19.3445 25.2392 19.3713 25.266 19.4249C26.043 19.2105 26.8469 18.9962 27.6775 18.7818C27.5435 18.5943 27.4363 18.4603 27.3024 18.2995C27.5703 18.112 27.8114 17.9244 28.0794 17.7904C28.4545 17.6029 28.8296 17.6565 29.0707 17.9244C29.3119 18.1656 29.3655 18.5407 29.1243 18.9158L21.3273 26.7932V15.3522L21.8364 14.8431L21.2737 14.2804L21.5416 14.0125L22.1579 14.6288C22.2651 14.8431 22.5062 14.9771 22.7473 14.9771C23.1225 14.9771 23.4172 14.6824 23.4172 14.3072C23.4172 13.9857 23.176 13.691 22.8813 13.6374C23.7387 13.423 24.355 12.6728 24.355 11.7618C24.355 11.2527 24.1406 10.7705 23.8191 10.4221L22.4794 11.7618H21.9167L21.4077 12.2709L21.1933 12.0566L21.8632 11.3867H22.1311C22.2383 11.3867 22.2383 11.4939 22.2383 11.4939H22.3454V11.1188L22.1043 10.8777C22.2651 10.8241 22.2651 10.5293 22.1579 10.4489C22.0507 10.3685 21.9167 10.315 21.9167 10.315C21.9167 10.315 21.8632 10.315 21.756 10.315V10.1006H21.5952V10.315H21.488C21.3541 10.315 21.2737 10.3686 21.2737 10.3686C21.0057 10.4758 21.1129 10.6901 21.1397 10.7705L20.9522 10.5829L21.0861 10.4758C21.2469 10.4222 21.2469 10.1274 21.1397 10.047C21.0325 9.96664 20.8986 9.91305 20.8986 9.91305C20.8986 9.91305 20.845 9.91305 20.7378 9.91305V9.69873H20.577V9.91305H20.4699C20.3359 9.91305 20.2555 9.96667 20.2555 9.96667C19.934 10.1006 20.1216 10.3953 20.1216 10.3953L20.3359 10.6097C20.3359 10.6097 20.2555 10.6901 20.1483 10.7705C20.1751 10.6633 20.1751 10.5293 20.0948 10.4758C19.9876 10.3954 19.8536 10.3418 19.8536 10.3418C19.8536 10.3418 19.8 10.3418 19.6929 10.3418V10.1274H19.5321V10.3418H19.4249C19.2909 10.3418 19.2106 10.3953 19.2106 10.3953C18.889 10.5293 19.0766 10.824 19.0766 10.824L19.2106 10.958L18.9962 11.1724V11.5475H19.1034C19.1034 11.5475 19.1034 11.4403 19.2106 11.4403H19.4249L20.068 12.0834L19.8536 12.3245L19.3445 11.8154H18.7819L17.4422 10.4758C17.1206 10.8241 16.9063 11.3064 16.9063 11.8154C16.9063 12.8872 17.7637 13.7446 18.8354 13.7446C19.023 13.7446 19.1838 13.7178 19.3713 13.6642L19.4785 13.7714L18.889 14.3609L18.8622 14.3876C18.7819 14.3876 18.6479 14.3876 18.5139 14.4412L17.8709 13.7982C17.8709 13.7714 17.8977 13.7446 17.8977 13.7178C17.8977 13.5838 17.7905 13.4766 17.6565 13.4766C17.5226 13.4766 17.4154 13.5838 17.4154 13.7178C17.4154 13.8518 17.5226 13.9589 17.6565 13.9589C17.6833 13.9589 17.7101 13.9589 17.7369 13.9589L18.38 14.602C18.3264 14.7359 18.38 14.8967 18.5407 15.0575C18.7015 15.1915 18.8354 15.1915 18.9426 15.1647L19.1034 15.3254L19.2642 15.1647L19.1302 15.0307C19.157 14.9503 19.1838 14.8163 19.157 14.7091L19.8 14.0661L20.068 14.334L19.5053 14.8967L20.068 15.4594V26.82L10.6633 17.3082C10.0471 16.6919 10.1543 16.156 10.9849 15.8613C12.3781 15.379 13.7178 15.513 14.9771 16.2364C15.0843 16.3168 15.2183 16.3972 15.3523 16.5044C15.2451 16.6383 15.1647 16.7187 15.0843 16.7991C14.7896 17.1206 14.8164 17.201 15.2183 17.3082C16.0489 17.5225 16.8527 17.7369 17.6833 17.978C17.7905 18.0048 17.8709 18.0048 18.0584 18.0316C17.7637 16.9866 17.5226 16.0221 17.2546 15.0575C17.201 14.8699 17.0671 14.8699 16.9331 14.9771C16.7723 15.1111 16.6116 15.2718 16.4776 15.4058C16.424 15.379 16.3972 15.379 16.3704 15.379C16.2632 15.2986 16.1561 15.2183 16.0489 15.1647C13.9322 13.8518 11.7619 13.7714 9.56479 14.9503C9.0825 15.2182 8.6538 15.4058 8.09113 15.3522C7.7696 15.3254 7.63563 15.4594 7.68922 15.7809C7.74281 16.3168 7.58204 16.7455 7.3141 17.201C6.10838 19.3445 6.18876 21.488 7.44807 23.6047C7.74281 24.1138 7.7696 24.1138 7.39449 24.5425C7.23372 24.7301 7.20693 24.8908 7.50166 24.9712C8.35906 25.2124 9.24326 25.4535 10.1007 25.6678C10.3418 25.7214 10.4222 25.641 10.3686 25.3999C10.1275 24.5425 9.91311 23.6583 9.67196 22.8009C9.59158 22.5598 9.45761 22.533 9.27005 22.6937C9.13608 22.8009 9.02891 22.9081 8.84135 23.0688C8.78777 22.9885 8.78776 22.9349 8.76097 22.9081C8.70738 22.8277 8.6538 22.7473 8.60021 22.6669C7.87677 21.4076 7.7696 20.0679 8.25189 18.7014C8.54662 17.8708 9.0825 17.7637 9.69875 18.3799L19.6661 28.3204L19.7464 28.4008L13.1016 35.1261C12.8604 35.3672 12.6997 35.4208 12.3513 35.2868C10.2346 34.349 7.84998 35.9299 7.90357 38.2074C7.93036 39.4935 8.70738 40.6456 9.88631 41.1011C11.092 41.5834 12.4585 41.3154 13.3427 40.4045C14.2537 39.4935 14.5484 38.127 14.0126 36.948C13.8518 36.5729 13.9322 36.3854 14.2001 36.1174L20.068 30.2764L20.2823 30.062V40.0025C19.9072 40.1901 19.6661 40.5652 19.6661 41.0207C19.6661 41.6638 20.1751 42.1728 20.8182 42.1728C21.4612 42.1728 21.9703 41.6638 21.9703 41.0207C21.9703 40.6188 21.756 40.2437 21.4345 40.0561V30.1156L26.2038 34.8849C25.7215 35.3672 25.2392 35.8227 24.7837 36.2782C23.9531 37.1624 23.8995 36.8141 24.8105 37.7519C24.998 37.9394 25.132 37.9126 25.2928 37.7519C25.7483 37.2964 26.2305 36.8141 26.686 36.3586C26.8469 36.1978 27.0076 36.0371 27.1684 35.9031C27.8382 36.3854 27.8382 36.4122 27.5971 37.1088C27.0612 38.6093 27.6775 40.2705 29.0975 40.9939C30.4908 41.7441 32.2324 41.3154 33.1702 40.0561C34.0812 38.77 33.9204 37.0016 32.7951 35.9031C31.8573 35.0189 30.4908 34.7777 29.2315 35.3404C29.0975 35.394 28.91 35.4208 28.8028 35.3672C28.5885 35.2332 28.4545 35.0189 28.2401 34.8313C28.3741 34.6974 28.4545 34.5902 28.5617 34.5098C29.0707 34.0007 29.5798 33.4649 30.1157 32.9558C30.3301 32.7682 30.3301 32.6074 30.1157 32.4199C29.9549 32.2859 29.7942 32.1252 29.6602 31.9644C29.4727 31.75 29.3387 31.75 29.1243 31.9644C28.7492 32.3663 28.3741 32.7146 27.999 33.0897C27.7578 33.3309 27.5703 33.5988 27.3559 33.8668C25.5071 31.9912 23.7387 30.2228 21.9703 28.4276C21.9971 28.4008 22.0507 28.3472 22.1043 28.2669L22.1311 28.2401C24.6765 25.6946 27.222 23.1492 29.7942 20.6038C30.0353 20.3626 30.3568 20.1751 30.6784 20.0411C31.2143 19.8268 31.7233 20.2287 31.6697 20.8182C31.643 21.2737 31.3482 21.622 31.0267 21.9167C30.8927 21.8095 30.7588 21.7292 30.5712 21.5952C30.3568 22.4258 30.1425 23.2296 29.9014 24.1138C30.8123 23.8726 31.5894 23.6583 32.4468 23.4439C32.3128 23.2564 32.2056 23.1224 32.0984 22.9884C32.6611 22.399 33.0362 21.6755 33.1166 20.8717C33.9204 21.4076 33.9472 23.3368 33.0094 23.9262C32.9023 23.8458 32.7683 23.7655 32.6075 23.6315C32.3932 24.4621 32.1788 25.2659 31.9377 26.1501C32.8487 25.909 33.6257 25.6946 34.4295 25.4803C34.1884 24.998 34.1884 24.998 34.5099 24.5693C34.9118 23.7387 35.1797 22.8813 35.0726 21.9435ZM21.9703 13.6106C22.1311 13.6642 22.3186 13.691 22.5062 13.691H22.533C22.399 13.7714 22.2651 13.8785 22.2115 14.0125L21.8899 13.691L21.9703 13.6106ZM10.9849 39.8418C10.0203 39.8418 9.29685 39.0916 9.29685 38.127C9.29685 37.1892 10.0471 36.439 10.9849 36.439C11.9494 36.439 12.6997 37.1892 12.6997 38.127C12.6997 39.0916 11.9494 39.8418 10.9849 39.8418ZM20.8718 11.3867L20.7378 11.5207L20.3091 11.092L20.7378 10.6633L21.1665 11.092L20.8718 11.3867ZM30.5176 36.439C31.4554 36.439 32.2056 37.1892 32.2056 38.127C32.2056 39.0916 31.4554 39.8418 30.4908 39.8418C29.5262 39.8418 28.776 39.0648 28.776 38.127C28.8028 37.1892 29.553 36.439 30.5176 36.439Z" fill="white"/>
<path d="M54.9251 19.5601C53.2906 17.8989 52.4868 15.8089 52.4868 13.2635C52.4868 10.7181 53.3174 8.6282 54.9251 6.99378C56.5595 5.33256 58.569 4.50195 61.0073 4.50195C62.856 4.50195 64.4637 4.93065 65.8569 5.84164V7.04737C64.3833 6.05599 62.7756 5.57371 61.034 5.57371C58.9441 5.57371 57.1757 6.29714 55.7557 7.7708C54.3356 9.21767 53.6122 11.0664 53.6122 13.2635C53.6122 15.4606 54.3088 17.3094 55.7557 18.7831C57.1757 20.23 58.9441 20.9534 61.0608 20.9534C63.0704 20.9534 64.7852 20.3639 66.232 19.185V20.4175C64.8388 21.4893 63.0972 22.0251 61.0073 22.0251C58.569 22.0251 56.5327 21.2213 54.9251 19.5601Z" fill="white"/>
<path d="M69.2095 21.7296V4.7959H80.5433V5.84086H70.3349V12.1106H78.7749V13.1556H70.3349V20.7114H80.9452V21.7564H69.2095V21.7296Z" fill="white"/>
<path d="M83.8367 21.7296V4.7959H90.9638C93.9379 4.7959 95.7063 6.34994 95.7063 8.89535C95.7063 10.7709 94.9293 11.9766 93.3485 12.5393C95.7599 12.9144 97.2336 14.6292 97.2336 17.0675C97.2336 19.9076 95.1973 21.7564 91.7944 21.7564H83.8367V21.7296ZM84.962 12.2178H90.8299C93.2413 12.2178 94.6346 11.0657 94.6346 9.02932C94.6346 6.99299 93.2413 5.84086 90.8299 5.84086H84.962V12.2178ZM84.962 20.7114H91.6069C94.4202 20.7114 96.0011 19.3449 96.0011 16.9603C96.0011 14.5756 94.3934 13.2092 91.6069 13.2092H84.962V20.7114Z" fill="white"/>
<path d="M100.479 21.7296V4.7959H111.812V5.84086H101.604V12.1106H110.044V13.1556H101.604V20.7114H112.214V21.7564H100.479V21.7296Z" fill="white"/>
<path d="M115.131 21.7296V4.7959H122.178C125.474 4.7959 127.403 6.61788 127.403 9.35085C127.403 12.0838 125.474 13.9326 122.178 13.9326H116.257V21.7564H115.131V21.7296ZM116.23 12.8876H122.071C124.75 12.8876 126.278 11.6015 126.278 9.35085C126.278 7.12696 124.75 5.84086 122.071 5.84086H116.23V12.8876Z" fill="white"/>
<path d="M132.121 19.5333C130.513 17.8721 129.736 15.7822 129.736 13.2635C129.736 10.7717 130.54 8.68182 132.121 7.0206C133.755 5.35938 135.765 4.50195 138.149 4.50195C140.534 4.50195 142.543 5.35938 144.151 7.0206C145.785 8.68182 146.562 10.7717 146.562 13.2635C146.562 15.7554 145.759 17.8721 144.151 19.5333C142.517 21.1945 140.534 22.0251 138.149 22.0251C135.738 22.0251 133.728 21.2213 132.121 19.5333ZM138.149 20.9802C140.212 20.9802 141.927 20.2567 143.32 18.7831C144.714 17.3094 145.437 15.4874 145.437 13.2904C145.437 11.0933 144.741 9.27125 143.32 7.79759C141.927 6.32393 140.186 5.6005 138.149 5.6005C136.086 5.6005 134.371 6.32393 132.978 7.79759C131.585 9.27125 130.861 11.0933 130.861 13.2904C130.861 15.4874 131.558 17.3094 132.978 18.7831C134.371 20.23 136.086 20.9802 138.149 20.9802Z" fill="white"/>
<path d="M150.1 15.7272V14.7358H156.638V15.7272H150.1Z" fill="white"/>
<path d="M158.728 20.7926V19.6405C160.336 20.5247 162.104 20.9802 164.087 20.9802C167.597 20.9802 169.767 19.3458 169.767 16.9075C169.767 15.7822 169.312 14.8712 168.374 14.121C167.463 13.3707 166.231 12.9956 164.65 12.9956H162.56V11.9507H164.757C167.356 11.9507 168.963 10.7449 168.963 8.70858C168.963 6.69905 167.088 5.57371 164.435 5.57371C162.774 5.57371 161.14 5.94882 159.532 6.69905V5.6005C161.167 4.87707 162.828 4.50195 164.489 4.50195C166.123 4.50195 167.436 4.87707 168.481 5.62729C169.526 6.37752 170.062 7.39569 170.062 8.70858C170.062 9.78034 169.741 10.6109 169.097 11.2272C168.481 11.8435 167.785 12.2454 167.034 12.4329C168.642 12.8348 170.919 14.1745 170.919 16.9611C170.919 18.4347 170.303 19.6673 169.124 20.605C167.945 21.5428 166.311 22.0251 164.248 22.0251C162.158 22.0251 160.282 21.6232 158.728 20.7926Z" fill="white"/>
<path d="M172.123 21.7289L179.813 4.68799H180.858L188.521 21.7289H187.369L185.118 16.7452H175.58L173.329 21.7289H172.123ZM175.955 15.7806H184.69L180.322 6.13485L175.955 15.7806Z" fill="white"/>
<path d="M191.094 21.7296V4.7959H204.035V21.7296H202.91V5.84086H192.192V21.7564H191.094V21.7296Z" fill="white"/>
<path d="M206.633 21.7289L214.322 4.68799H215.367L223.03 21.7289H221.878L219.628 16.7452H210.089L207.838 21.7289H206.633ZM210.437 15.7806H219.172L214.805 6.13485L210.437 15.7806Z" fill="white"/>
<path d="M223.462 25.6425V20.7125H225.043C226.168 19.1316 226.999 17.3364 227.508 15.3001C228.017 13.2638 228.285 10.3701 228.285 6.59212V4.82373H238.199V20.7393H240.851V25.6693H239.78V21.7842H224.534V25.6693H223.462V25.6425ZM237.074 20.7125V5.8419H229.411V6.96724C229.411 13.4245 228.553 17.6848 226.356 20.6857H237.074V20.7125Z" fill="white"/>
<path d="M243.448 21.7296V4.7959H244.573V12.1106H255.639V4.7959H256.764V21.7296H255.639V13.1556H244.573V21.7564H243.448V21.7296Z" fill="white"/>
<path d="M261.053 21.7296V4.7959H262.179V11.4676H267.189C269.065 11.4676 270.485 11.9498 271.53 12.8876C272.575 13.8254 273.084 15.0579 273.084 16.5852C273.084 19.7201 270.913 21.7296 267.189 21.7296H261.053ZM262.179 20.7114H267.109C270.19 20.7114 271.958 19.211 271.958 16.5852C271.958 13.9862 270.19 12.4857 267.109 12.4857H262.179V20.7114ZM275.87 21.7296V4.7959H276.996V21.7296H275.87Z" fill="white"/>
<path d="M281.307 21.7298V4.79609H282.433V19.8542L293.874 4.79609H294.892V21.7298H293.767V6.64487L282.272 21.7566H281.307V21.7298ZM284.308 0H285.3C285.3 1.52725 286.398 2.54541 288.113 2.54541C289.748 2.54541 290.873 1.47366 290.873 0H291.864C291.837 2.06312 290.257 3.4564 288.113 3.4564C285.836 3.4564 284.335 2.11671 284.308 0Z" fill="white"/>
<path d="M55.2486 46.943V45.8712C55.7844 46.0856 56.3739 46.1927 56.9634 46.1927C58.5174 46.1927 59.4284 45.0674 60.5269 42.6024L60.6341 42.388L53.7481 30.0093H55.0342L61.2236 41.1823L66.368 30.0093H67.6005L61.3576 43.4062C60.0179 46.2463 58.8389 47.2645 57.1777 47.2645C56.4275 47.2377 55.8112 47.1573 55.2486 46.943Z" fill="white"/>
<path d="M70.1474 46.9708V30.0371H71.2727V37.3518H82.3386V30.0371H83.4639V46.9708H82.3386V38.37H71.2727V46.9708H70.1474Z" fill="white"/>
<path d="M87.7498 46.9708V30.0371H88.8751V45.0952L100.316 30.0371H101.334V46.9708H100.209V31.8591L88.7143 46.9708H87.7498Z" fill="white"/>
<path d="M105.675 46.9708V30.0371H112.803C115.777 30.0371 117.545 31.5912 117.545 34.1366C117.545 36.0121 116.768 37.2179 115.187 37.7805C117.599 38.1556 119.072 39.8704 119.072 42.3087C119.072 45.1488 117.036 46.9976 113.633 46.9976H105.675V46.9708ZM106.774 37.4322H112.642C115.053 37.4322 116.447 36.2801 116.447 34.2437C116.447 32.2074 115.053 31.0553 112.642 31.0553H106.774V37.4322ZM106.774 45.9258H113.419C116.232 45.9258 117.813 44.5594 117.813 42.1747C117.813 39.7901 116.205 38.4236 113.419 38.4236H106.774V45.9258Z" fill="white"/>
<path d="M122.314 46.9708V30.0371H133.648V31.0821H123.439V37.3518H131.879V38.3968H123.439V45.9526H134.05V46.9976H122.314V46.9708Z" fill="white"/>
<path d="M136.944 46.9708V30.0371H143.991C147.287 30.0371 149.216 31.8591 149.216 34.5921C149.216 37.325 147.287 39.1738 143.991 39.1738H138.07V46.9976H136.944V46.9708ZM138.07 38.1021H143.911C146.59 38.1021 148.117 36.8159 148.117 34.5653C148.117 32.3414 146.59 31.0553 143.911 31.0553H138.07V38.1021Z" fill="white"/>
<path d="M153.984 44.7715C152.349 43.1103 151.546 41.0204 151.546 38.475C151.546 35.9295 152.376 33.8396 153.984 32.2052C155.618 30.544 157.628 29.7134 160.066 29.7134C161.915 29.7134 163.522 30.1421 164.916 31.0531V32.2588C163.442 31.2674 161.834 30.7851 160.093 30.7851C158.003 30.7851 156.235 31.5086 154.815 32.9822C153.394 34.4291 152.698 36.2779 152.698 38.475C152.698 40.6721 153.394 42.5208 154.815 43.9945C156.235 45.4414 158.003 46.1648 160.12 46.1648C162.129 46.1648 163.844 45.5753 165.291 44.3964V45.6289C163.898 46.7007 162.156 47.2365 160.066 47.2365C157.628 47.2365 155.618 46.4327 153.984 44.7715Z" fill="white"/>
<path d="M168.265 46.9708V30.0371H169.39V45.0952L180.831 30.0371H181.85V46.9708H180.724V31.8591L169.23 46.9708H168.265Z" fill="white"/>
<path d="M190.585 46.9698V31.0542H184.503V30.0093H197.766V31.0542H191.684V46.9698H190.585Z" fill="white"/>
<path d="M200.417 46.9708V30.0371H211.751V31.0821H201.542V37.3518H209.982V38.3968H201.542V45.9526H212.153V46.9976H200.417V46.9708Z" fill="white"/>
<path d="M219.47 46.9698V31.0542H213.388V30.0093H226.651V31.0542H220.569V46.9698H219.47Z" fill="white"/>
</g>
<defs>
<clipPath id="clip0_231_935">
<rect width="295" height="52.248" fill="white"/>
</clipPath>
</defs>
</svg>
