<svg width="415" height="79" viewBox="0 0 415 79" fill="none" xmlns="http://www.w3.org/2000/svg">
<path d="M363.194 21.1965H377.614V28.9435H377.935C379.857 25.7156 382.35 23.3843 385.412 21.9497C388.474 20.4434 391.607 19.6902 394.812 19.6902C398.871 19.6902 402.182 20.264 404.746 21.4117C407.38 22.4877 409.446 24.0299 410.941 26.0384C412.436 27.9751 413.469 30.3781 414.039 33.2473C414.68 36.0449 415 39.1652 415 42.6083V76.824H399.832V45.4058C399.832 40.815 399.12 37.4078 397.696 35.1841C396.272 32.8887 393.744 31.741 390.112 31.741C385.981 31.741 382.991 32.9963 381.139 35.5069C379.288 37.9457 378.362 41.9985 378.362 47.6653V76.824H363.194V21.1965Z" fill="white"/>
<path d="M351.251 12.5888H336.083V0H351.251V12.5888ZM336.083 21.1965H351.251V76.824H336.083V21.1965Z" fill="white"/>
<path d="M290.033 58.7478C290.033 60.3976 290.353 61.8322 290.994 63.0516C291.706 64.1993 292.597 65.1677 293.665 65.9567C294.733 66.674 295.943 67.212 297.296 67.5707C298.721 67.9293 300.181 68.1087 301.676 68.1087C302.744 68.1087 303.848 68.0011 304.987 67.7859C306.198 67.4989 307.266 67.1044 308.192 66.6023C309.189 66.0285 310.008 65.3111 310.649 64.4504C311.289 63.5179 311.61 62.3702 311.61 61.0073C311.61 58.7119 310.079 56.9903 307.017 55.8426C304.026 54.6949 299.824 53.5472 294.412 52.3995C292.205 51.8974 290.033 51.3236 287.897 50.678C285.832 49.9607 283.98 49.0641 282.342 47.9881C280.704 46.8404 279.387 45.4416 278.39 43.7918C277.393 42.0703 276.894 39.9901 276.894 37.5512C276.894 33.9647 277.571 31.0237 278.924 28.7283C280.348 26.4329 282.2 24.6396 284.478 23.3485C286.757 21.9856 289.321 21.0531 292.169 20.551C295.018 19.9771 297.937 19.6902 300.928 19.6902C303.919 19.6902 306.803 19.9771 309.58 20.551C312.429 21.1248 314.957 22.0932 317.164 23.4561C319.372 24.819 321.188 26.6481 322.612 28.9435C324.107 31.1672 324.998 34.0005 325.282 37.4436H310.862C310.649 34.5026 309.545 32.53 307.551 31.5258C305.557 30.4498 303.207 29.9119 300.501 29.9119C299.646 29.9119 298.721 29.9836 297.724 30.127C296.727 30.1988 295.801 30.414 294.947 30.7726C294.163 31.1313 293.487 31.6693 292.917 32.3866C292.347 33.0322 292.062 33.9288 292.062 35.0765C292.062 36.4394 292.561 37.5512 293.558 38.412C294.555 39.2728 295.837 39.9901 297.403 40.5639C299.041 41.066 300.893 41.5323 302.958 41.9627C305.023 42.3931 307.124 42.8593 309.26 43.3614C311.467 43.8635 313.604 44.4733 315.669 45.1906C317.805 45.9079 319.692 46.8763 321.33 48.0957C322.968 49.2434 324.285 50.7139 325.282 52.5072C326.279 54.2287 326.778 56.3806 326.778 58.9629C326.778 62.6212 326.03 65.7057 324.535 68.2163C323.11 70.6551 321.223 72.6277 318.873 74.1341C316.523 75.6404 313.817 76.6805 310.755 77.2544C307.765 77.9 304.702 78.2227 301.569 78.2227C298.365 78.2227 295.231 77.9 292.169 77.2544C289.107 76.6088 286.366 75.5328 283.944 74.0265C281.594 72.5201 279.636 70.5475 278.069 68.1087C276.574 65.5981 275.755 62.4778 275.613 58.7478H290.033Z" fill="white"/>
<path d="M254.119 43.0386C253.407 39.1652 252.125 36.2242 250.274 34.2157C248.494 32.2073 245.752 31.203 242.049 31.203C239.628 31.203 237.598 31.6334 235.96 32.4942C234.394 33.2832 233.112 34.2875 232.115 35.5069C231.189 36.7263 230.513 38.0175 230.085 39.3804C229.729 40.7433 229.516 41.9627 229.445 43.0386H254.119ZM229.445 52.7223C229.658 57.6718 230.904 61.2583 233.183 63.482C235.462 65.7057 238.738 66.8175 243.01 66.8175C246.072 66.8175 248.707 66.0643 250.915 64.558C253.122 62.9799 254.475 61.3301 254.974 59.6085H268.326C266.189 66.2795 262.914 71.0496 258.499 73.9189C254.084 76.7881 248.743 78.2227 242.476 78.2227C238.132 78.2227 234.216 77.5413 230.726 76.1784C227.237 74.7438 224.282 72.7353 221.861 70.153C219.439 67.5707 217.552 64.4862 216.199 60.8997C214.917 57.3131 214.277 53.3679 214.277 49.0641C214.277 44.9037 214.953 41.0302 216.306 37.4436C217.659 33.8571 219.582 30.7726 222.074 28.1903C224.567 25.5363 227.522 23.4561 230.94 21.9497C234.429 20.4434 238.275 19.6902 242.476 19.6902C247.176 19.6902 251.271 20.6227 254.76 22.4877C258.249 24.281 261.098 26.7198 263.305 29.8043C265.584 32.8887 267.222 36.4035 268.219 40.3487C269.216 44.2939 269.572 48.4185 269.287 52.7223H229.445Z" fill="white"/>
<path d="M0 65.3112L28.7337 32.7094H2.13633V21.1965H48.7084V32.7094L19.9747 65.3112H50.7379V76.824H0V65.3112Z" fill="white"/>
<path d="M363.194 21.1965H377.614V28.9435H377.935C379.857 25.7156 382.35 23.3843 385.412 21.9497C388.474 20.4434 391.607 19.6902 394.812 19.6902C398.871 19.6902 402.182 20.264 404.746 21.4117C407.38 22.4877 409.446 24.0299 410.941 26.0384C412.436 27.9751 413.469 30.3781 414.039 33.2473C414.68 36.0449 415 39.1652 415 42.6083V76.824H399.832V45.4058C399.832 40.815 399.12 37.4078 397.696 35.1841C396.272 32.8887 393.744 31.741 390.112 31.741C385.981 31.741 382.991 32.9963 381.139 35.5069C379.288 37.9457 378.362 41.9985 378.362 47.6653V76.824H363.194V21.1965Z" fill="white"/>
<path d="M351.251 12.5888H336.083V0H351.251V12.5888ZM336.083 21.1965H351.251V76.824H336.083V21.1965Z" fill="white"/>
<path d="M290.033 58.7478C290.033 60.3976 290.353 61.8322 290.994 63.0516C291.706 64.1993 292.597 65.1677 293.665 65.9567C294.733 66.674 295.943 67.212 297.296 67.5707C298.721 67.9293 300.181 68.1087 301.676 68.1087C302.744 68.1087 303.848 68.0011 304.987 67.7859C306.198 67.4989 307.266 67.1044 308.192 66.6023C309.189 66.0285 310.008 65.3111 310.649 64.4504C311.289 63.5179 311.61 62.3702 311.61 61.0073C311.61 58.7119 310.079 56.9903 307.017 55.8426C304.026 54.6949 299.824 53.5472 294.412 52.3995C292.205 51.8974 290.033 51.3236 287.897 50.678C285.832 49.9607 283.98 49.0641 282.342 47.9881C280.704 46.8404 279.387 45.4416 278.39 43.7918C277.393 42.0703 276.894 39.9901 276.894 37.5512C276.894 33.9647 277.571 31.0237 278.924 28.7283C280.348 26.4329 282.2 24.6396 284.478 23.3485C286.757 21.9856 289.321 21.0531 292.169 20.551C295.018 19.9771 297.937 19.6902 300.928 19.6902C303.919 19.6902 306.803 19.9771 309.58 20.551C312.429 21.1248 314.957 22.0932 317.164 23.4561C319.372 24.819 321.188 26.6481 322.612 28.9435C324.107 31.1672 324.998 34.0005 325.282 37.4436H310.862C310.649 34.5026 309.545 32.53 307.551 31.5258C305.557 30.4498 303.207 29.9119 300.501 29.9119C299.646 29.9119 298.721 29.9836 297.724 30.127C296.727 30.1988 295.801 30.414 294.947 30.7726C294.163 31.1313 293.487 31.6693 292.917 32.3866C292.347 33.0322 292.062 33.9288 292.062 35.0765C292.062 36.4394 292.561 37.5512 293.558 38.412C294.555 39.2728 295.837 39.9901 297.403 40.5639C299.041 41.066 300.893 41.5323 302.958 41.9627C305.023 42.3931 307.124 42.8593 309.26 43.3614C311.467 43.8635 313.604 44.4733 315.669 45.1906C317.805 45.9079 319.692 46.8763 321.33 48.0957C322.968 49.2434 324.285 50.7139 325.282 52.5072C326.279 54.2287 326.778 56.3806 326.778 58.9629C326.778 62.6212 326.03 65.7057 324.535 68.2163C323.11 70.6551 321.223 72.6277 318.873 74.1341C316.523 75.6404 313.817 76.6805 310.755 77.2544C307.765 77.9 304.702 78.2227 301.569 78.2227C298.365 78.2227 295.231 77.9 292.169 77.2544C289.107 76.6088 286.366 75.5328 283.944 74.0265C281.594 72.5201 279.636 70.5475 278.069 68.1087C276.574 65.5981 275.755 62.4778 275.613 58.7478H290.033Z" fill="white"/>
<path d="M58.1679 38.3044C58.3815 34.7178 59.2716 31.741 60.8383 29.3739C62.4049 27.0067 64.3988 25.1059 66.82 23.6713C69.2412 22.2366 71.9472 21.2324 74.9381 20.6585C78.0001 20.013 81.0622 19.6902 84.1243 19.6902C86.9015 19.6902 89.7144 19.9054 92.5628 20.3358C95.4112 20.6944 98.0105 21.4476 100.36 22.5953C102.71 23.743 104.633 25.3569 106.129 27.4371C107.624 29.4456 108.372 32.1355 108.372 35.5069V64.4504C108.372 66.961 108.514 69.364 108.799 71.6593C109.084 73.9547 109.582 75.6763 110.294 76.824H94.9128C94.6279 75.9632 94.3787 75.1024 94.1651 74.2417C94.0226 73.3092 93.9158 72.3767 93.8446 71.4442C91.4234 73.9547 88.575 75.7121 85.2993 76.7164C82.0236 77.7206 78.6766 78.2227 75.2585 78.2227C72.6237 78.2227 70.1669 77.9 67.8882 77.2544C65.6094 76.6088 63.6155 75.6046 61.9064 74.2417C60.1974 72.8788 58.8444 71.1572 57.8474 69.077C56.9217 66.9968 56.4588 64.5221 56.4588 61.6529C56.4588 58.4967 56.9929 55.9144 58.061 53.9059C59.2004 51.8257 60.6246 50.1759 62.3337 48.9565C64.114 47.737 66.1079 46.8404 68.3154 46.2665C70.5942 45.621 72.8729 45.1188 75.1517 44.7602C77.4305 44.4015 79.6736 44.1146 81.8811 43.8994C84.0887 43.6842 86.047 43.3614 87.7561 42.931C89.4651 42.5007 90.8181 41.8909 91.8151 41.1019C92.812 40.2411 93.2749 39.0217 93.2037 37.4436C93.2037 35.7938 92.9189 34.5026 92.3492 33.5701C91.8507 32.5659 91.1386 31.8127 90.2128 31.3106C89.3583 30.7368 88.3257 30.3781 87.1152 30.2346C85.9758 30.0195 84.7296 29.9119 83.3766 29.9119C80.3857 29.9119 78.0357 30.5574 76.3267 31.8486C74.6176 33.1398 73.6207 35.2917 73.3358 38.3044H58.1679ZM93.2037 49.602C92.5628 50.1759 91.7439 50.6421 90.7469 51.0008C89.8212 51.2877 88.7886 51.5388 87.6492 51.754C86.5811 51.9692 85.4417 52.1485 84.2311 52.292C83.0205 52.4354 81.8099 52.6147 80.5993 52.8299C79.46 53.0451 78.3206 53.3321 77.1812 53.6907C76.113 54.0494 75.1517 54.5515 74.2972 55.1971C73.5138 55.7709 72.8729 56.5241 72.3745 57.4566C71.876 58.3891 71.6268 59.5727 71.6268 61.0073C71.6268 62.3702 71.876 63.5179 72.3745 64.4504C72.8729 65.3829 73.5494 66.136 74.404 66.7099C75.2585 67.212 76.2555 67.5707 77.3948 67.7859C78.5342 68.0011 79.7092 68.1087 80.9198 68.1087C83.9107 68.1087 86.225 67.6065 87.8629 66.6023C89.5007 65.5981 90.7113 64.4145 91.4946 63.0516C92.278 61.617 92.7408 60.1824 92.8833 58.7478C93.0969 57.3131 93.2037 56.1654 93.2037 55.3047V49.602Z" fill="white"/>
<path d="M0 65.3112L28.7337 32.7094H2.13633V21.1965H48.7084V32.7094L19.9747 65.3112H50.7379V76.824H0V65.3112Z" fill="white"/>
<path fill-rule="evenodd" clip-rule="evenodd" d="M130.785 69.0434C130.448 72.1211 130.094 75.3603 129.459 77.6409L117.623 74.299C117.961 73.0857 118.175 71.1687 118.519 68.0883C118.596 67.3969 118.68 66.6468 118.773 65.8329C119.239 61.7659 119.899 56.7429 121.255 51.4999C123.978 40.9725 129.656 29.0269 142.745 21.4929C150.563 16.9933 158.622 18.1061 165.002 22.1093C167.876 23.9121 170.428 26.2944 172.585 29.0342C176.316 26.9236 180.108 25.2066 183.739 24.1748C189.004 22.6791 195.634 22.18 200.71 26.4465C205.792 30.7184 207.003 37.8251 206.279 45.6687C205.53 53.7704 202.583 64.4744 197.062 78.2829L185.66 73.657C191.001 60.2995 193.452 50.8815 194.039 44.5212C194.651 37.9028 193.137 36.2076 192.834 35.9536C192.526 35.6942 191.112 34.9453 187.076 36.092C184.542 36.812 181.609 38.1204 178.466 39.9087C180.822 46.8148 181.286 54.8819 178.166 62.1223C174.866 69.7832 167.967 75.5495 157.548 77.9462C153.942 78.7755 150.676 79.1675 147.85 78.9328C145.07 78.7019 141.893 77.7803 139.649 75.1349C137.319 72.3877 137.084 69.0871 137.48 66.5279C137.868 64.0175 138.932 61.5541 140.169 59.345C144.342 51.8859 153.016 42.9313 162.264 35.897C161.094 34.5582 159.818 33.4443 158.503 32.6192C155.353 30.6423 152.153 30.3387 148.844 32.2436C139.679 37.5188 135.404 45.9084 133.15 54.6218C132.018 58.9992 131.434 63.3229 130.984 67.2515C130.917 67.8368 130.852 68.437 130.785 69.0434ZM167.726 47.2959C160.186 53.3371 153.725 60.3347 150.877 65.4248C150.634 65.8587 150.435 66.2487 150.273 66.5954C151.366 66.5315 152.853 66.3252 154.811 65.8748C161.982 64.2253 165.363 60.7371 166.89 57.1924C168.118 54.3435 168.388 50.886 167.726 47.2959ZM148.223 66.4895C148.224 66.4891 148.234 66.4921 148.253 66.4996C148.232 66.4936 148.223 66.4898 148.223 66.4895Z" fill="white"/>
</svg>
