<svg width="283" height="72" viewBox="0 0 283 72" fill="none" xmlns="http://www.w3.org/2000/svg">
<path d="M46.702 0L31.1346 8.97539L15.5673 18.0282L31.1346 27.0036L46.702 18.0282L62.2693 8.97539L46.702 0Z" fill="#FAA819"/>
<path d="M0 44.9544L15.5673 53.9298L31.1346 44.9544L15.5673 35.979L0 44.9544Z" fill="#FAA819"/>
<path d="M0 62.9049L15.5673 71.8803V53.9295L0 44.9541V62.9049Z" fill="#F58020"/>
<path d="M15.5673 18.0278V35.9786L31.1346 44.954V27.0032L15.5673 18.0278Z" fill="#F58020"/>
<path d="M46.702 18.0279L31.1346 27.0033V44.954L15.5673 53.9294V71.8802L31.1346 62.9048L46.702 53.9294V35.9787L62.2693 27.0033V8.9751L46.702 18.0279Z" fill="#FFCE38"/>
<path fill-rule="evenodd" clip-rule="evenodd" d="M233.51 30.6397L233.897 27.4674H243.811V62.9047H233.897L233.51 59.8097C232.116 61.2025 229.018 63.6011 224.448 63.6011C214.922 63.6011 207.719 55.7089 207.719 45.186C207.719 34.7405 214.845 26.771 224.448 26.771C229.018 26.771 232.116 29.1696 233.51 30.6397ZM217.865 45.1087C217.865 49.9059 221.35 53.7746 225.687 53.7746C230.025 53.7746 233.51 49.9059 233.51 45.1087C233.51 40.3115 230.025 36.4428 225.687 36.4428C221.35 36.4428 217.865 40.3115 217.865 45.1087Z" fill="#9B9895"/>
<path d="M163.805 9.28487C160.243 8.35638 156.525 10.5229 155.596 14.0821C154.666 17.6413 156.835 21.3552 160.398 22.2837C163.96 23.2122 167.678 21.0457 168.607 17.4865C169.614 13.8499 167.446 10.2134 163.805 9.28487" fill="#FAA819"/>
<rect x="156.99" y="27.4678" width="10.3782" height="35.4373" fill="#9B9895"/>
<rect x="174.416" y="9.05225" width="10.3782" height="53.8524" fill="#9B9895"/>
<rect x="191.92" y="9.05225" width="10.3782" height="53.8524" fill="#9B9895"/>
<path d="M151.491 27.4673H139.564L126.552 44.1027V9.05225H116.174V62.9046H126.552V46.1918L139.564 62.8272H151.491L137.705 45.1086L151.491 27.4673Z" fill="#9B9895"/>
<path d="M97.2764 31.6455C92.4746 28.7053 88.2923 26.152 88.5246 22.5154C88.757 18.3372 93.0942 17.4087 95.65 17.4087C99.0578 17.4087 102.001 19.1109 103.163 19.962L108.661 13.1531L108.739 13.0757C106.725 10.9866 101.614 8.20117 95.7274 8.20117C84.2649 8.20117 78.4562 15.0875 77.8366 21.9738C77.0621 31.0265 84.5747 35.5916 91.2354 39.5377C96.1147 42.4779 100.297 45.0312 99.9097 48.6678C99.7548 50.7569 98.5156 54.084 92.4746 54.084C89.2217 54.084 85.7365 52.5365 81.167 48.2809L74.971 55.8636C79.5405 60.6608 85.659 63.5236 91.7775 63.5236C91.855 63.5236 91.9324 63.5236 92.0099 63.5236C102.93 63.5236 109.823 58.1074 110.443 49.0547C111.295 40.1567 103.86 35.669 97.2764 31.6455" fill="#9B9895"/>
<path d="M283 27.4678H250.936V36.5205H265.806L249.387 62.8277H282.613V53.5428H266.891L283 27.4678Z" fill="#9B9895"/>
</svg>
