<svg width="857" height="166" viewBox="0 0 857 166" fill="none" xmlns="http://www.w3.org/2000/svg">
<path d="M132.66 81.8258C131.388 83.0882 129.544 84.0981 127.128 84.8555C124.711 85.6129 121.213 86.4335 116.635 87.3171C109.512 88.7058 104.616 90.4731 101.945 92.6191C99.2741 94.7652 97.9386 97.858 97.9386 101.898C97.9386 108.841 101.945 112.312 109.958 112.312C113.137 112.312 116.062 111.807 118.733 110.797C121.531 109.661 123.884 108.21 125.792 106.442C127.827 104.549 129.417 102.403 130.562 100.004C131.833 97.4793 132.469 91.4009 132.469 88.6237L132.66 81.8258ZM134.377 129.062C134.377 129.062 133.436 113.702 133.182 110.546C131.555 118.243 125.22 127.386 118.733 129.927C113.9 131.82 110.784 132.508 104.425 132.508C93.6144 132.508 85.6653 127.587 80.5779 122.916C75.6177 118.119 73.1376 111.934 73.1376 104.359C73.1376 97.6687 74.2187 92.3667 76.3808 88.4533C78.5429 84.4137 81.5318 81.2577 85.3474 78.9854C89.1629 76.7131 93.6779 75.072 98.8925 74.0621C104.234 72.926 110.021 71.9161 116.253 71.0324C122.485 70.1487 126.682 69.0126 128.845 67.624C131.007 66.1091 132.088 63.7106 132.088 60.4284C132.088 57.3987 130.625 55.0633 127.7 53.4222C124.902 51.6548 121.086 50.7712 116.253 50.7712C110.53 50.7712 106.396 52.0336 103.853 54.5583C101.436 57.0831 99.91 60.4284 99.2741 64.5943H76.19C76.3172 59.7972 77.0803 55.3789 78.4794 51.3392C80.0056 47.2996 82.3585 43.8281 85.5381 40.9246C88.8449 38.0211 93.1056 35.812 98.3202 34.2971C103.535 32.656 109.894 31.8354 117.398 31.8354C124.775 31.8354 131.007 32.656 136.094 34.2971C141.309 35.9382 145.442 38.3367 148.495 41.4927C151.674 44.5224 153.964 48.3727 155.363 53.0435C156.762 57.588 157.461 62.7638 157.461 68.5708V129.062H134.377Z" fill="#9B9895"/>
<path d="M358.131 129.062V71.3361C358.131 64.0848 356.934 59.1869 354.539 56.6426C352.144 54.0983 348.047 52.8261 342.249 52.8261C329.519 52.8261 323.154 60.0138 323.154 74.3893V129.062H298.575V34.4167H322.019V48.0555C324.918 42.7124 328.763 38.7051 333.552 36.0336C338.342 33.2348 344.518 31.8354 352.081 31.8354C356.492 31.8354 360.589 32.5351 364.37 33.9345C368.151 35.2067 371.366 37.1785 374.013 39.8501C376.786 42.5216 378.928 45.8292 380.441 49.7729C382.079 53.5894 382.899 58.042 382.899 63.1306V129.062H358.131Z" fill="#9B9895"/>
<path d="M265.262 71.7898C265.135 68.3814 264.499 65.4148 263.354 62.89C262.337 60.239 260.938 58.093 259.157 56.4519C257.376 54.6846 255.341 53.4222 253.051 52.6648C250.761 51.7811 248.408 51.3392 245.991 51.3392C241.031 51.3392 236.706 53.1697 233.017 56.8306C229.455 60.3653 227.42 65.3517 226.911 71.7898H265.262ZM226.148 87.3171C226.53 94.3865 228.565 100.004 232.254 104.17C236.07 108.336 241.031 110.419 247.136 110.419C251.207 110.419 254.768 109.535 257.821 107.768C261.001 105.874 263.036 103.286 263.927 100.004H289.494C286.569 109.598 281.302 119.158 274.051 124.334C266.801 129.51 257.857 132.508 247.808 132.508C216.516 132.508 201.344 113.007 201.344 79.1748C201.344 71.9792 202.361 65.4779 204.397 59.671C206.432 53.864 209.357 48.8776 213.173 44.7117C217.117 40.5459 221.887 37.3899 227.484 35.2439C233.08 32.9716 239.504 31.8354 246.755 31.8354C261.256 31.8354 272.195 36.4431 279.573 45.6585C287.077 54.8739 290.83 68.7601 290.83 87.3171H226.148Z" fill="#9B9895"/>
<path d="M169.509 129.062V0H193.601V129.062H169.509Z" fill="#9B9895"/>
<path d="M38.242 129.062V21.9472H0V0H103.253V21.9472H64.8201V129.062H38.242Z" fill="#9B9895"/>
<path d="M431.085 35.2764H490.022C493.28 35.2765 496.363 36.7536 498.405 39.293C500.446 41.8324 501.226 45.1607 500.526 48.3428L495.403 71.625C492.181 89.156 495.346 98.5379 498.962 103.425C502.627 108.379 506.465 111.184 514.816 111.184C517.807 111.421 524.965 110.132 530.363 105.972C514.139 88.4701 511.531 68.8286 516.861 53.4863C518.503 48.7598 521.862 43.9778 526.293 40.3301C530.753 36.6576 536.884 33.6725 544.233 33.5605V33.5557H545.187C552.726 33.5558 559.009 36.5866 563.555 40.3301C567.985 43.9777 571.344 48.76 572.986 53.4863C578.316 68.8285 575.708 88.4702 559.485 105.972C564.883 110.132 572.04 111.421 575.031 111.184C583.382 111.184 587.22 108.379 590.885 103.425C594.501 98.538 597.666 89.1563 594.445 71.625L589.321 48.3428C588.621 45.1607 589.402 41.8324 591.443 39.293C593.485 36.7536 596.567 35.2764 599.826 35.2764H641.557V55.9268H613.205L615.493 67.1807C615.518 67.2964 615.541 67.4128 615.563 67.5293C619.512 88.8112 616.507 104.961 608.178 116.219C599.888 127.424 587.771 131.701 577.594 132.509C568.729 133.213 558.494 130.028 549.683 125.14C548.093 124.257 546.501 123.296 544.923 122.261C543.346 123.296 541.754 124.257 540.164 125.14C531.353 130.028 521.118 133.213 512.253 132.509C502.076 131.701 489.959 127.424 481.669 116.219C473.34 104.961 470.336 88.8112 474.285 67.5293C474.306 67.4128 474.33 67.2964 474.355 67.1807L476.642 55.9268H448.291V55.9258H431.085V89.8262C431.085 95.8101 431.551 97.8763 433.707 101.187C435.989 104.37 440.526 105.961 445.597 105.961C450.662 105.961 461.172 105.83 461.2 105.83V129.062H442.27C442.27 129.062 431.678 129.105 426.86 127.067C422.043 125.03 419.468 123.468 415.74 118.855C412.011 114.242 408.713 107.551 408.713 89.7275V55.9258H388.062V35.2764H408.713V8.60352H431.085V35.2764ZM544.365 54.2129C542.888 54.2851 541.396 54.8986 539.966 56.0752C538.332 57.421 537.191 59.6662 537.181 59.6846C535.063 63.3157 536.015 79.1691 544.927 91.2354C553.832 79.2311 554.781 63.7071 552.667 59.6846C552.662 59.6761 551.519 57.424 549.881 56.0752C548.357 54.8199 546.759 54.2061 545.187 54.2061H544.661L544.365 54.2129Z" fill="#9B9895"/>
<path d="M743.734 46.4023C743.734 52.9937 745.443 63.8129 749.043 69.085C752.304 73.8592 757.673 77.9189 767.277 77.9189C777.796 77.9189 784.62 74.4555 789.097 67.7598C793.015 61.9006 793.352 52.1547 793.375 49.8105V34.8447H816.129V104.276C837.211 103.247 835.491 81.6759 835.491 68.8311H857.001C857.001 85.925 855.067 105.883 841.083 116.153C834.547 120.954 825.595 124.328 816.129 124.328C816.129 143.687 810.026 151.858 799.782 159.175C790.747 165.628 778.561 165.197 774.399 165.197C766.509 165.197 758.269 163.735 751.774 158.421C745.017 152.893 740.842 144.651 740.841 134.654C740.84 125.235 745.144 117.995 751.101 113.447C758.568 107.747 770.319 104.108 781.712 104.108C786.065 104.108 790.071 104.047 793.757 103.922V88.582C787.598 96.7905 778.301 99.3759 766.421 99.376C760.462 99.376 755.198 98.374 750.545 96.5625C748.99 99.7044 746.927 103.795 745.302 106.733C742.339 112.09 738.806 117.884 735.106 122.475C733.267 124.755 731.104 127.097 728.664 128.957C726.395 130.686 722.674 132.507 717.938 132.507C706.858 132.507 699.089 124.887 694.85 119.867C694.406 119.341 693.969 118.807 693.542 118.274C692.42 119.428 691.257 120.521 690.061 121.545C681.745 128.665 670.966 132.508 660.392 132.508C640.332 132.508 624.681 119.549 624.681 100.668C624.681 91.1004 629.088 81.3638 636.022 76.0176C642.745 70.8339 650.581 68.4024 659.532 68.4023C665.821 68.4023 670.379 69.3909 676.308 72.7041C682.211 76.003 685.743 80.8362 685.773 80.8779C685.676 78.4223 685.577 70.4714 684.958 67.959C684.016 64.1286 682.493 61.2446 680.453 59.3564C678.622 57.6627 675.483 55.9268 669.424 55.9268H632.425V35.2764H669.424C680.122 35.2764 688.72 37.6997 695.064 43.5703C701.198 49.2467 704.285 56.4726 705.847 62.8213C708.717 74.4867 707.084 89.3479 706.75 91.4219C706.454 93.8835 705.949 96.2625 705.273 98.5518C707.838 101.75 710.522 105.086 711.285 105.989C713.789 108.955 715.538 110.324 716.627 110.94C717.1 110.461 717.68 109.817 718.359 108.975C720.901 105.821 723.731 101.29 726.479 96.3223C729.081 91.6183 731.42 86.8679 733.156 83.1807C732.551 82.3947 731.965 81.5875 731.4 80.7598C724.147 70.1399 721.481 57.1475 721.481 46.4023V34.8447H743.734V46.4023ZM779.131 124.328C762.409 124.328 762.78 135.438 762.783 135.513C762.783 135.513 762.783 145.408 775.259 145.408C777.012 145.408 782.266 146.084 787.797 142.089C793.328 138.094 793.756 130.781 793.756 124.328H779.131ZM660.443 89.9209C654.367 89.5289 651.346 91.3645 649.157 93.0527C647.163 94.5898 646.192 98.19 646.192 100.668C646.192 105.878 650.338 111.853 660.392 111.854C664.862 111.854 678.028 109.702 680.453 102.389C676.322 97.3131 670.192 92.5313 666.413 91.2031C664.357 90.4809 660.514 89.9255 660.443 89.9209Z" fill="#9B9895"/>
</svg>
