<svg preserveAspectRatio="none" width="100%" height="100%" overflow="visible" style="display: block;" viewBox="0 0 16 16" fill="none" xmlns="http://www.w3.org/2000/svg">
<g id="SVG" clip-path="url(#clip0_117_3790)">
<path id="Vector" d="M3.5 9C3.96441 9 4.19666 8.99973 4.3916 9.02539C5.7378 9.20262 6.79738 10.2622 6.97461 11.6084C7.00027 11.8033 7 12.0356 7 12.5C7 12.9644 7.00027 13.1967 6.97461 13.3916L6.93066 13.6406C6.66326 14.8668 5.6536 15.8085 4.3916 15.9746L4.23535 15.9893C4.06603 16.0001 3.84832 16 3.5 16C3.15168 16 2.93397 16.0001 2.76465 15.9893L2.6084 15.9746C1.3464 15.8085 0.336742 14.8668 0.069336 13.6406L0.0253907 13.3916C-0.000272961 13.1967 1.18578e-07 12.9644 1.18578e-07 12.5C1.18578e-07 12.0356 -0.000272961 11.8033 0.0253907 11.6084C0.202621 10.2622 1.2622 9.20262 2.6084 9.02539C2.80334 8.99973 3.03559 9 3.5 9ZM12.5 9C12.9644 9 13.1967 8.99973 13.3916 9.02539C14.7378 9.20262 15.7974 10.2622 15.9746 11.6084C16.0003 11.8033 16 12.0356 16 12.5C16 12.9644 16.0003 13.1967 15.9746 13.3916L15.9307 13.6406C15.6633 14.8668 14.6536 15.8085 13.3916 15.9746L13.2354 15.9893C13.066 16.0001 12.8483 16 12.5 16C12.1517 16 11.934 16.0001 11.7646 15.9893L11.6084 15.9746C10.3464 15.8085 9.33674 14.8668 9.06934 13.6406L9.02539 13.3916C8.99973 13.1967 9 12.9644 9 12.5C9 12.0356 8.99973 11.8033 9.02539 11.6084C9.20262 10.2622 10.2622 9.20262 11.6084 9.02539C11.8033 8.99973 12.0356 9 12.5 9ZM2.99902 11.0029C2.89586 11.0053 2.86914 11.0088 2.86914 11.0088C2.4207 11.068 2.06799 11.4207 2.00879 11.8691C2.00879 11.8691 2.00529 11.8959 2.00293 11.999C2.00037 12.1113 2 12.2589 2 12.5C2 12.7411 2.00037 12.8887 2.00293 13.001C2.00529 13.1041 2.00879 13.1309 2.00879 13.1309C2.06799 13.5793 2.4207 13.932 2.86914 13.9912C2.86914 13.9912 2.89586 13.9947 2.99902 13.9971C3.11135 13.9996 3.2589 14 3.5 14C3.7411 14 3.88865 13.9996 4.00098 13.9971C4.10415 13.9947 4.13086 13.9912 4.13086 13.9912C4.5793 13.932 4.93201 13.5793 4.99121 13.1309C4.99121 13.1309 4.99471 13.1041 4.99707 13.001C4.99963 12.8887 5 12.7411 5 12.5C5 12.2589 4.99963 12.1113 4.99707 11.999C4.99471 11.8959 4.99121 11.8691 4.99121 11.8691C4.93201 11.4207 4.5793 11.068 4.13086 11.0088C4.13086 11.0088 4.10415 11.0053 4.00098 11.0029C3.88865 11.0004 3.7411 11 3.5 11C3.2589 11 3.11135 11.0004 2.99902 11.0029ZM11.999 11.0029C11.8959 11.0053 11.8691 11.0088 11.8691 11.0088C11.4207 11.068 11.068 11.4207 11.0088 11.8691C11.0088 11.8691 11.0053 11.8959 11.0029 11.999C11.0004 12.1113 11 12.2589 11 12.5C11 12.7411 11.0004 12.8887 11.0029 13.001C11.0053 13.1041 11.0088 13.1309 11.0088 13.1309C11.068 13.5793 11.4207 13.932 11.8691 13.9912C11.8691 13.9912 11.8959 13.9947 11.999 13.9971C12.1113 13.9996 12.2589 14 12.5 14C12.7411 14 12.8887 13.9996 13.001 13.9971C13.1041 13.9947 13.1309 13.9912 13.1309 13.9912C13.5793 13.932 13.932 13.5793 13.9912 13.1309C13.9912 13.1309 13.9947 13.1041 13.9971 13.001C13.9996 12.8887 14 12.7411 14 12.5C14 12.2589 13.9996 12.1113 13.9971 11.999C13.9947 11.8959 13.9912 11.8691 13.9912 11.8691C13.932 11.4207 13.5793 11.068 13.1309 11.0088C13.1309 11.0088 13.1041 11.0053 13.001 11.0029C12.8887 11.0004 12.7411 11 12.5 11C12.2589 11 12.1113 11.0004 11.999 11.0029ZM3.5 1.18578e-07C3.96441 1.18578e-07 4.19666 -0.000272946 4.3916 0.0253907C5.7378 0.202621 6.79738 1.2622 6.97461 2.6084C7.00027 2.80334 7 3.03559 7 3.5C7 3.96441 7.00027 4.19666 6.97461 4.3916L6.93066 4.64062C6.66326 5.8668 5.6536 6.80846 4.3916 6.97461L4.23535 6.98926C4.06603 7.00009 3.84832 7 3.5 7C3.15168 7 2.93397 7.00009 2.76465 6.98926L2.6084 6.97461C1.3464 6.80846 0.336742 5.8668 0.069336 4.64062L0.0253907 4.3916C-0.000272946 4.19666 1.18578e-07 3.96441 1.18578e-07 3.5C1.18578e-07 3.03559 -0.000272961 2.80334 0.0253907 2.6084C0.202621 1.2622 1.2622 0.202621 2.6084 0.0253907C2.80334 -0.000272961 3.03559 1.18578e-07 3.5 1.18578e-07ZM12.5 1.18578e-07C12.9644 1.18578e-07 13.1967 -0.000272961 13.3916 0.0253907C14.7378 0.202621 15.7974 1.2622 15.9746 2.6084C16.0003 2.80334 16 3.03559 16 3.5C16 3.96441 16.0003 4.19666 15.9746 4.3916L15.9307 4.64062C15.6633 5.8668 14.6536 6.80846 13.3916 6.97461L13.2354 6.98926C13.066 7.00009 12.8483 7 12.5 7C12.1517 7 11.934 7.00009 11.7646 6.98926L11.6084 6.97461C10.3464 6.80846 9.33674 5.8668 9.06934 4.64062L9.02539 4.3916C8.99973 4.19666 9 3.96441 9 3.5C9 3.03559 8.99973 2.80334 9.02539 2.6084C9.20262 1.2622 10.2622 0.202621 11.6084 0.0253907C11.8033 -0.000272961 12.0356 1.18578e-07 12.5 1.18578e-07ZM11.999 2.00293C11.8959 2.00529 11.8691 2.00879 11.8691 2.00879C11.4207 2.06799 11.068 2.4207 11.0088 2.86914C11.0088 2.86914 11.0053 2.89586 11.0029 2.99902C11.0004 3.11135 11 3.2589 11 3.5C11 3.7411 11.0004 3.88865 11.0029 4.00098C11.0053 4.10415 11.0088 4.13086 11.0088 4.13086C11.068 4.5793 11.4207 4.93201 11.8691 4.99121C11.8691 4.99121 11.8959 4.99471 11.999 4.99707C12.1113 4.99963 12.2589 5 12.5 5C12.7411 5 12.8887 4.99963 13.001 4.99707C13.1041 4.99471 13.1309 4.99121 13.1309 4.99121C13.5793 4.93201 13.932 4.5793 13.9912 4.13086C13.9912 4.13086 13.9947 4.10415 13.9971 4.00098C13.9996 3.88865 14 3.7411 14 3.5C14 3.2589 13.9996 3.11135 13.9971 2.99902C13.9947 2.89586 13.9912 2.86914 13.9912 2.86914C13.932 2.4207 13.5793 2.06799 13.1309 2.00879C13.1309 2.00879 13.1041 2.00529 13.001 2.00293C12.8887 2.00037 12.7411 2 12.5 2C12.2589 2 12.1113 2.00037 11.999 2.00293ZM2.99902 2.00293C2.89586 2.00529 2.86914 2.00879 2.86914 2.00879C2.4207 2.06799 2.06799 2.4207 2.00879 2.86914C2.00879 2.86914 2.00529 2.89586 2.00293 2.99902C2.00037 3.11135 2 3.2589 2 3.5C2 3.7411 2.00037 3.88865 2.00293 4.00098C2.00529 4.10415 2.00879 4.13086 2.00879 4.13086C2.06799 4.5793 2.4207 4.93201 2.86914 4.99121C2.86914 4.99121 2.89586 4.99471 2.99902 4.99707C3.11135 4.99963 3.2589 5 3.5 5C3.7411 5 3.88865 4.99963 4.00098 4.99707C4.10415 4.99471 4.13086 4.99121 4.13086 4.99121C4.5793 4.93201 4.93201 4.5793 4.99121 4.13086C4.99121 4.13086 4.99471 4.10415 4.99707 4.00098C4.99963 3.88865 5 3.7411 5 3.5C5 3.2589 4.99963 3.11135 4.99707 2.99902C4.99471 2.89586 4.99121 2.86914 4.99121 2.86914C4.93201 2.4207 4.5793 2.06799 4.13086 2.00879C4.13086 2.00879 4.10415 2.00529 4.00098 2.00293C3.88865 2.00037 3.7411 2 3.5 2C3.2589 2 3.11135 2.00037 2.99902 2.00293Z" fill="var(--fill-0, white)"/>
</g>
<defs>
<clipPath id="clip0_117_3790">
<rect width="16" height="16" fill="white"/>
</clipPath>
</defs>
</svg>
