<svg preserveAspectRatio="none" width="100%" height="100%" overflow="visible" style="display: block;" viewBox="0 0 1806.69 123.36" fill="none" xmlns="http://www.w3.org/2000/svg">
<g id="Frame 2147225176">
<rect width="1806.69" height="123.36" fill="#111111"/>
<g id="invertinvertinvertinvertinvert">
<path d="M1.52 90.08V49.28H8.32V90.08H1.52ZM4.88 41.76C3.54667 41.76 2.4 41.28 1.44 40.32C0.48 39.36 0 38.2133 0 36.88C0 35.4933 0.48 34.3467 1.44 33.44C2.4 32.48 3.54667 32 4.88 32C6.26667 32 7.41333 32.48 8.32 33.44C9.28 34.3467 9.76 35.4933 9.76 36.88C9.76 38.2133 9.28 39.36 8.32 40.32C7.41333 41.28 6.26667 41.76 4.88 41.76Z" fill="var(--fill-0, #0DC267)"/>
<path d="M14.2388 90.08V49.28H20.7188V55.28H21.0387C22.1054 53.3067 23.8388 51.6 26.2388 50.16C28.6921 48.72 31.3588 48 34.2388 48C39.2521 48 43.0121 49.4667 45.5187 52.4C48.0788 55.28 49.3588 59.12 49.3588 63.92V90.08H42.5588V64.96C42.5588 61.0133 41.5988 58.24 39.6788 56.64C37.8121 54.9867 35.3854 54.16 32.3988 54.16C30.1588 54.16 28.1854 54.8 26.4788 56.08C24.7721 57.3067 23.4388 58.9067 22.4788 60.88C21.5187 62.8533 21.0387 64.9333 21.0387 67.12V90.08H14.2388Z" fill="var(--fill-0, #0DC267)"/>
<path d="M65.5944 90.08L49.1144 49.28H56.3944L69.0344 82.08H69.1944L81.9944 49.28H89.1144L72.4744 90.08H65.5944Z" fill="var(--fill-0, #0DC267)"/>
<path d="M107.758 91.36C103.811 91.36 100.291 90.4267 97.1981 88.56C94.1581 86.6933 91.7581 84.1333 89.9981 80.88C88.2915 77.6267 87.4381 73.92 87.4381 69.76C87.4381 65.8667 88.2381 62.2667 89.8381 58.96C91.4915 55.6533 93.7848 53.0133 96.7181 51.04C99.7048 49.0133 103.198 48 107.198 48C111.251 48 114.718 48.9067 117.598 50.72C120.531 52.48 122.771 54.9333 124.318 58.08C125.918 61.2267 126.718 64.8267 126.718 68.88C126.718 69.2533 126.691 69.6267 126.638 70C126.638 70.3733 126.611 70.6933 126.558 70.96H91.4381V65.36H119.518C119.465 64.24 119.198 63.04 118.718 61.76C118.291 60.4267 117.571 59.2 116.558 58.08C115.598 56.9067 114.345 55.9733 112.798 55.28C111.305 54.5333 109.438 54.16 107.198 54.16C104.531 54.16 102.211 54.8533 100.238 56.24C98.3181 57.5733 96.8248 59.4133 95.7581 61.76C94.7448 64.1067 94.2381 66.7733 94.2381 69.76C94.2381 73.2267 94.9048 76.1067 96.2381 78.4C97.5715 80.6933 99.2781 82.4 101.358 83.52C103.491 84.64 105.705 85.2 107.998 85.2C110.985 85.2 113.438 84.5067 115.358 83.12C117.331 81.68 118.905 79.92 120.078 77.84L125.838 80.64C124.238 83.7333 121.945 86.2933 118.958 88.32C115.971 90.3467 112.238 91.36 107.758 91.36Z" fill="var(--fill-0, #0DC267)"/>
<path d="M130.442 90.08V49.28H136.922V55.84H137.242C137.775 54.2933 138.655 52.96 139.882 51.84C141.162 50.6667 142.602 49.76 144.202 49.12C145.855 48.4267 147.482 48.08 149.082 48.08C150.309 48.08 151.269 48.16 151.962 48.32C152.655 48.4267 153.295 48.6133 153.882 48.88V56.24C153.029 55.8133 152.095 55.4933 151.082 55.28C150.122 55.0667 149.135 54.96 148.122 54.96C146.149 54.96 144.335 55.52 142.682 56.64C141.029 57.76 139.695 59.2533 138.682 61.12C137.722 62.9867 137.242 65.04 137.242 67.28V90.08H130.442Z" fill="var(--fill-0, #0DC267)"/>
<path d="M153.872 55.44V49.28H161.473V55.44H153.872ZM172.432 90.72C169.019 90.72 166.273 89.7067 164.193 87.68C162.113 85.6 161.072 82.8267 161.072 79.36V37.76H167.872V77.68C167.872 79.9733 168.326 81.68 169.232 82.8C170.192 83.8667 171.606 84.4 173.473 84.4C174.326 84.4 175.126 84.2933 175.872 84.08C176.619 83.8133 177.339 83.4667 178.033 83.04V89.68C177.179 90 176.299 90.24 175.393 90.4C174.486 90.6133 173.499 90.72 172.432 90.72ZM167.473 55.44V49.28H177.872V55.44H167.473Z" fill="var(--fill-0, #0DC267)"/>
<path d="M181.973 90.08V49.28H188.773V90.08H181.973ZM185.333 41.76C184 41.76 182.853 41.28 181.893 40.32C180.933 39.36 180.453 38.2133 180.453 36.88C180.453 35.4933 180.933 34.3467 181.893 33.44C182.853 32.48 184 32 185.333 32C186.72 32 187.866 32.48 188.773 33.44C189.733 34.3467 190.213 35.4933 190.213 36.88C190.213 38.2133 189.733 39.36 188.773 40.32C187.866 41.28 186.72 41.76 185.333 41.76Z" fill="var(--fill-0, #0DC267)"/>
<path d="M194.692 90.08V49.28H201.172V55.28H201.492C202.559 53.3067 204.292 51.6 206.692 50.16C209.145 48.72 211.812 48 214.692 48C219.705 48 223.465 49.4667 225.972 52.4C228.532 55.28 229.812 59.12 229.812 63.92V90.08H223.012V64.96C223.012 61.0133 222.052 58.24 220.132 56.64C218.265 54.9867 215.839 54.16 212.852 54.16C210.612 54.16 208.639 54.8 206.932 56.08C205.225 57.3067 203.892 58.9067 202.932 60.88C201.972 62.8533 201.492 64.9333 201.492 67.12V90.08H194.692Z" fill="var(--fill-0, #0DC267)"/>
<path d="M246.048 90.08L229.568 49.28H236.848L249.488 82.08H249.648L262.448 49.28H269.568L252.928 90.08H246.048Z" fill="var(--fill-0, #0DC267)"/>
<path d="M288.211 91.36C284.265 91.36 280.745 90.4267 277.651 88.56C274.611 86.6933 272.211 84.1333 270.451 80.88C268.745 77.6267 267.891 73.92 267.891 69.76C267.891 65.8667 268.691 62.2667 270.291 58.96C271.945 55.6533 274.238 53.0133 277.171 51.04C280.158 49.0133 283.651 48 287.651 48C291.705 48 295.171 48.9067 298.051 50.72C300.985 52.48 303.225 54.9333 304.771 58.08C306.371 61.2267 307.171 64.8267 307.171 68.88C307.171 69.2533 307.145 69.6267 307.091 70C307.091 70.3733 307.065 70.6933 307.011 70.96H271.891V65.36H299.971C299.918 64.24 299.651 63.04 299.171 61.76C298.745 60.4267 298.025 59.2 297.011 58.08C296.051 56.9067 294.798 55.9733 293.251 55.28C291.758 54.5333 289.891 54.16 287.651 54.16C284.985 54.16 282.665 54.8533 280.691 56.24C278.771 57.5733 277.278 59.4133 276.211 61.76C275.198 64.1067 274.691 66.7733 274.691 69.76C274.691 73.2267 275.358 76.1067 276.691 78.4C278.025 80.6933 279.731 82.4 281.811 83.52C283.945 84.64 286.158 85.2 288.451 85.2C291.438 85.2 293.891 84.5067 295.811 83.12C297.785 81.68 299.358 79.92 300.531 77.84L306.291 80.64C304.691 83.7333 302.398 86.2933 299.411 88.32C296.425 90.3467 292.691 91.36 288.211 91.36Z" fill="var(--fill-0, #0DC267)"/>
<path d="M310.895 90.08V49.28H317.375V55.84H317.695C318.228 54.2933 319.108 52.96 320.335 51.84C321.615 50.6667 323.055 49.76 324.655 49.12C326.308 48.4267 327.935 48.08 329.535 48.08C330.762 48.08 331.722 48.16 332.415 48.32C333.108 48.4267 333.748 48.6133 334.335 48.88V56.24C333.482 55.8133 332.548 55.4933 331.535 55.28C330.575 55.0667 329.588 54.96 328.575 54.96C326.602 54.96 324.788 55.52 323.135 56.64C321.482 57.76 320.148 59.2533 319.135 61.12C318.175 62.9867 317.695 65.04 317.695 67.28V90.08H310.895Z" fill="var(--fill-0, #0DC267)"/>
<path d="M334.326 55.44V49.28H341.926V55.44H334.326ZM352.886 90.72C349.472 90.72 346.726 89.7067 344.646 87.68C342.566 85.6 341.526 82.8267 341.526 79.36V37.76H348.326V77.68C348.326 79.9733 348.779 81.68 349.686 82.8C350.646 83.8667 352.059 84.4 353.926 84.4C354.779 84.4 355.579 84.2933 356.326 84.08C357.072 83.8133 357.792 83.4667 358.486 83.04V89.68C357.632 90 356.752 90.24 355.846 90.4C354.939 90.6133 353.952 90.72 352.886 90.72ZM347.926 55.44V49.28H358.326V55.44H347.926Z" fill="var(--fill-0, #0DC267)"/>
<path d="M362.426 90.08V49.28H369.226V90.08H362.426ZM365.786 41.76C364.453 41.76 363.306 41.28 362.346 40.32C361.386 39.36 360.906 38.2133 360.906 36.88C360.906 35.4933 361.386 34.3467 362.346 33.44C363.306 32.48 364.453 32 365.786 32C367.173 32 368.32 32.48 369.226 33.44C370.186 34.3467 370.666 35.4933 370.666 36.88C370.666 38.2133 370.186 39.36 369.226 40.32C368.32 41.28 367.173 41.76 365.786 41.76Z" fill="var(--fill-0, #0DC267)"/>
<path d="M375.145 90.08V49.28H381.625V55.28H381.945C383.012 53.3067 384.745 51.6 387.145 50.16C389.598 48.72 392.265 48 395.145 48C400.158 48 403.918 49.4667 406.425 52.4C408.985 55.28 410.265 59.12 410.265 63.92V90.08H403.465V64.96C403.465 61.0133 402.505 58.24 400.585 56.64C398.718 54.9867 396.292 54.16 393.305 54.16C391.065 54.16 389.092 54.8 387.385 56.08C385.678 57.3067 384.345 58.9067 383.385 60.88C382.425 62.8533 381.945 64.9333 381.945 67.12V90.08H375.145Z" fill="var(--fill-0, #0DC267)"/>
<path d="M426.501 90.08L410.021 49.28H417.301L429.941 82.08H430.101L442.901 49.28H450.021L433.381 90.08H426.501Z" fill="var(--fill-0, #0DC267)"/>
<path d="M468.664 91.36C464.718 91.36 461.198 90.4267 458.104 88.56C455.064 86.6933 452.664 84.1333 450.904 80.88C449.198 77.6267 448.344 73.92 448.344 69.76C448.344 65.8667 449.144 62.2667 450.744 58.96C452.398 55.6533 454.691 53.0133 457.624 51.04C460.611 49.0133 464.104 48 468.104 48C472.158 48 475.624 48.9067 478.504 50.72C481.438 52.48 483.678 54.9333 485.224 58.08C486.824 61.2267 487.624 64.8267 487.624 68.88C487.624 69.2533 487.598 69.6267 487.544 70C487.544 70.3733 487.518 70.6933 487.464 70.96H452.344V65.36H480.424C480.371 64.24 480.104 63.04 479.624 61.76C479.198 60.4267 478.478 59.2 477.464 58.08C476.504 56.9067 475.251 55.9733 473.704 55.28C472.211 54.5333 470.344 54.16 468.104 54.16C465.438 54.16 463.118 54.8533 461.144 56.24C459.224 57.5733 457.731 59.4133 456.664 61.76C455.651 64.1067 455.144 66.7733 455.144 69.76C455.144 73.2267 455.811 76.1067 457.144 78.4C458.478 80.6933 460.184 82.4 462.264 83.52C464.398 84.64 466.611 85.2 468.904 85.2C471.891 85.2 474.344 84.5067 476.264 83.12C478.238 81.68 479.811 79.92 480.984 77.84L486.744 80.64C485.144 83.7333 482.851 86.2933 479.864 88.32C476.878 90.3467 473.144 91.36 468.664 91.36Z" fill="var(--fill-0, #0DC267)"/>
<path d="M491.348 90.08V49.28H497.828V55.84H498.148C498.681 54.2933 499.561 52.96 500.788 51.84C502.068 50.6667 503.508 49.76 505.108 49.12C506.761 48.4267 508.388 48.08 509.988 48.08C511.215 48.08 512.175 48.16 512.868 48.32C513.561 48.4267 514.201 48.6133 514.788 48.88V56.24C513.935 55.8133 513.001 55.4933 511.988 55.28C511.028 55.0667 510.041 54.96 509.028 54.96C507.055 54.96 505.241 55.52 503.588 56.64C501.935 57.76 500.601 59.2533 499.588 61.12C498.628 62.9867 498.148 65.04 498.148 67.28V90.08H491.348Z" fill="var(--fill-0, #0DC267)"/>
<path d="M514.779 55.44V49.28H522.379V55.44H514.779ZM533.339 90.72C529.925 90.72 527.179 89.7067 525.099 87.68C523.019 85.6 521.979 82.8267 521.979 79.36V37.76H528.779V77.68C528.779 79.9733 529.232 81.68 530.139 82.8C531.099 83.8667 532.512 84.4 534.379 84.4C535.232 84.4 536.032 84.2933 536.779 84.08C537.525 83.8133 538.245 83.4667 538.939 83.04V89.68C538.085 90 537.205 90.24 536.299 90.4C535.392 90.6133 534.405 90.72 533.339 90.72ZM528.379 55.44V49.28H538.779V55.44H528.379Z" fill="var(--fill-0, #0DC267)"/>
<path d="M542.879 90.08V49.28H549.679V90.08H542.879ZM546.239 41.76C544.906 41.76 543.759 41.28 542.799 40.32C541.839 39.36 541.359 38.2133 541.359 36.88C541.359 35.4933 541.839 34.3467 542.799 33.44C543.759 32.48 544.906 32 546.239 32C547.626 32 548.773 32.48 549.679 33.44C550.639 34.3467 551.119 35.4933 551.119 36.88C551.119 38.2133 550.639 39.36 549.679 40.32C548.773 41.28 547.626 41.76 546.239 41.76Z" fill="var(--fill-0, #0DC267)"/>
<path d="M555.598 90.08V49.28H562.078V55.28H562.398C563.465 53.3067 565.198 51.6 567.598 50.16C570.051 48.72 572.718 48 575.598 48C580.611 48 584.371 49.4667 586.878 52.4C589.438 55.28 590.718 59.12 590.718 63.92V90.08H583.918V64.96C583.918 61.0133 582.958 58.24 581.038 56.64C579.171 54.9867 576.745 54.16 573.758 54.16C571.518 54.16 569.545 54.8 567.838 56.08C566.131 57.3067 564.798 58.9067 563.838 60.88C562.878 62.8533 562.398 64.9333 562.398 67.12V90.08H555.598Z" fill="var(--fill-0, #0DC267)"/>
<path d="M606.954 90.08L590.474 49.28H597.754L610.394 82.08H610.554L623.354 49.28H630.474L613.834 90.08H606.954Z" fill="var(--fill-0, #0DC267)"/>
<path d="M649.117 91.36C645.171 91.36 641.651 90.4267 638.557 88.56C635.517 86.6933 633.117 84.1333 631.357 80.88C629.651 77.6267 628.797 73.92 628.797 69.76C628.797 65.8667 629.598 62.2667 631.198 58.96C632.851 55.6533 635.144 53.0133 638.078 51.04C641.064 49.0133 644.557 48 648.557 48C652.611 48 656.078 48.9067 658.958 50.72C661.891 52.48 664.131 54.9333 665.677 58.08C667.277 61.2267 668.078 64.8267 668.078 68.88C668.078 69.2533 668.051 69.6267 667.997 70C667.997 70.3733 667.971 70.6933 667.917 70.96H632.797V65.36H660.878C660.824 64.24 660.558 63.04 660.078 61.76C659.651 60.4267 658.931 59.2 657.917 58.08C656.957 56.9067 655.704 55.9733 654.158 55.28C652.664 54.5333 650.797 54.16 648.557 54.16C645.891 54.16 643.571 54.8533 641.597 56.24C639.677 57.5733 638.184 59.4133 637.117 61.76C636.104 64.1067 635.597 66.7733 635.597 69.76C635.597 73.2267 636.264 76.1067 637.597 78.4C638.931 80.6933 640.638 82.4 642.718 83.52C644.851 84.64 647.064 85.2 649.357 85.2C652.344 85.2 654.798 84.5067 656.718 83.12C658.691 81.68 660.264 79.92 661.438 77.84L667.198 80.64C665.598 83.7333 663.304 86.2933 660.318 88.32C657.331 90.3467 653.597 91.36 649.117 91.36Z" fill="var(--fill-0, #0DC267)"/>
<path d="M671.801 90.08V49.28H678.281V55.84H678.601C679.135 54.2933 680.015 52.96 681.241 51.84C682.521 50.6667 683.961 49.76 685.561 49.12C687.215 48.4267 688.841 48.08 690.441 48.08C691.668 48.08 692.628 48.16 693.321 48.32C694.015 48.4267 694.655 48.6133 695.241 48.88V56.24C694.388 55.8133 693.455 55.4933 692.441 55.28C691.481 55.0667 690.495 54.96 689.481 54.96C687.508 54.96 685.695 55.52 684.041 56.64C682.388 57.76 681.055 59.2533 680.041 61.12C679.081 62.9867 678.601 65.04 678.601 67.28V90.08H671.801Z" fill="var(--fill-0, #0DC267)"/>
<path d="M695.232 55.44V49.28H702.832V55.44H695.232ZM713.792 90.72C710.379 90.72 707.632 89.7067 705.552 87.68C703.472 85.6 702.432 82.8267 702.432 79.36V37.76H709.232V77.68C709.232 79.9733 709.685 81.68 710.592 82.8C711.552 83.8667 712.965 84.4 714.832 84.4C715.685 84.4 716.485 84.2933 717.232 84.08C717.979 83.8133 718.699 83.4667 719.392 83.04V89.68C718.539 90 717.659 90.24 716.752 90.4C715.845 90.6133 714.859 90.72 713.792 90.72ZM708.832 55.44V49.28H719.232V55.44H708.832Z" fill="var(--fill-0, #0DC267)"/>
<path d="M723.333 90.08V49.28H730.133V90.08H723.333ZM726.693 41.76C725.359 41.76 724.213 41.28 723.253 40.32C722.293 39.36 721.812 38.2133 721.812 36.88C721.812 35.4933 722.293 34.3467 723.253 33.44C724.213 32.48 725.359 32 726.693 32C728.079 32 729.226 32.48 730.133 33.44C731.093 34.3467 731.573 35.4933 731.573 36.88C731.573 38.2133 731.093 39.36 730.133 40.32C729.226 41.28 728.079 41.76 726.693 41.76Z" fill="var(--fill-0, #0DC267)"/>
<path d="M736.051 90.08V49.28H742.531V55.28H742.851C743.918 53.3067 745.651 51.6 748.051 50.16C750.505 48.72 753.171 48 756.051 48C761.065 48 764.825 49.4667 767.331 52.4C769.891 55.28 771.171 59.12 771.171 63.92V90.08H764.371V64.96C764.371 61.0133 763.411 58.24 761.491 56.64C759.625 54.9867 757.198 54.16 754.211 54.16C751.971 54.16 749.998 54.8 748.291 56.08C746.585 57.3067 745.251 58.9067 744.291 60.88C743.331 62.8533 742.851 64.9333 742.851 67.12V90.08H736.051Z" fill="var(--fill-0, #0DC267)"/>
<path d="M787.407 90.08L770.927 49.28H778.207L790.847 82.08H791.007L803.807 49.28H810.927L794.287 90.08H787.407Z" fill="var(--fill-0, #0DC267)"/>
<path d="M829.571 91.36C825.624 91.36 822.104 90.4267 819.011 88.56C815.971 86.6933 813.571 84.1333 811.811 80.88C810.104 77.6267 809.251 73.92 809.251 69.76C809.251 65.8667 810.051 62.2667 811.651 58.96C813.304 55.6533 815.597 53.0133 818.531 51.04C821.517 49.0133 825.011 48 829.011 48C833.064 48 836.531 48.9067 839.411 50.72C842.344 52.48 844.584 54.9333 846.131 58.08C847.731 61.2267 848.531 64.8267 848.531 68.88C848.531 69.2533 848.504 69.6267 848.451 70C848.451 70.3733 848.424 70.6933 848.371 70.96H813.251V65.36H841.331C841.277 64.24 841.011 63.04 840.531 61.76C840.104 60.4267 839.384 59.2 838.371 58.08C837.411 56.9067 836.157 55.9733 834.611 55.28C833.117 54.5333 831.251 54.16 829.011 54.16C826.344 54.16 824.024 54.8533 822.051 56.24C820.131 57.5733 818.637 59.4133 817.571 61.76C816.557 64.1067 816.051 66.7733 816.051 69.76C816.051 73.2267 816.717 76.1067 818.051 78.4C819.384 80.6933 821.091 82.4 823.171 83.52C825.304 84.64 827.517 85.2 829.811 85.2C832.797 85.2 835.251 84.5067 837.171 83.12C839.144 81.68 840.717 79.92 841.891 77.84L847.651 80.64C846.051 83.7333 843.757 86.2933 840.771 88.32C837.784 90.3467 834.051 91.36 829.571 91.36Z" fill="var(--fill-0, #0DC267)"/>
<path d="M852.254 90.08V49.28H858.734V55.84H859.054C859.588 54.2933 860.468 52.96 861.694 51.84C862.974 50.6667 864.414 49.76 866.014 49.12C867.668 48.4267 869.294 48.08 870.894 48.08C872.121 48.08 873.081 48.16 873.774 48.32C874.468 48.4267 875.108 48.6133 875.694 48.88V56.24C874.841 55.8133 873.908 55.4933 872.894 55.28C871.934 55.0667 870.948 54.96 869.934 54.96C867.961 54.96 866.148 55.52 864.494 56.64C862.841 57.76 861.508 59.2533 860.494 61.12C859.534 62.9867 859.054 65.04 859.054 67.28V90.08H852.254Z" fill="var(--fill-0, #0DC267)"/>
<path d="M875.685 55.44V49.28H883.285V55.44H875.685ZM894.245 90.72C890.832 90.72 888.085 89.7067 886.005 87.68C883.925 85.6 882.885 82.8267 882.885 79.36V37.76H889.685V77.68C889.685 79.9733 890.138 81.68 891.045 82.8C892.005 83.8667 893.418 84.4 895.285 84.4C896.138 84.4 896.938 84.2933 897.685 84.08C898.432 83.8133 899.152 83.4667 899.845 83.04V89.68C898.992 90 898.112 90.24 897.205 90.4C896.298 90.6133 895.312 90.72 894.245 90.72ZM889.285 55.44V49.28H899.685V55.44H889.285Z" fill="var(--fill-0, #0DC267)"/>
</g>
<g id="invertinvertinvertinvertinvert_2">
<path d="M1805.17 90.08V49.28H1798.37V90.08H1805.17ZM1801.81 41.76C1803.14 41.76 1804.29 41.28 1805.25 40.32C1806.21 39.36 1806.69 38.2133 1806.69 36.88C1806.69 35.4933 1806.21 34.3467 1805.25 33.44C1804.29 32.48 1803.14 32 1801.81 32C1800.42 32 1799.28 32.48 1798.37 33.44C1797.41 34.3467 1796.93 35.4933 1796.93 36.88C1796.93 38.2133 1797.41 39.36 1798.37 40.32C1799.28 41.28 1800.42 41.76 1801.81 41.76Z" fill="var(--fill-0, #0DC267)"/>
<path d="M1792.45 90.08V49.28H1785.97V55.28H1785.65C1784.58 53.3067 1782.85 51.6 1780.45 50.16C1778 48.72 1775.33 48 1772.45 48C1767.44 48 1763.68 49.4667 1761.17 52.4C1758.61 55.28 1757.33 59.12 1757.33 63.92V90.08H1764.13V64.96C1764.13 61.0133 1765.09 58.24 1767.01 56.64C1768.88 54.9867 1771.3 54.16 1774.29 54.16C1776.53 54.16 1778.5 54.8 1780.21 56.08C1781.92 57.3067 1783.25 58.9067 1784.21 60.88C1785.17 62.8533 1785.65 64.9333 1785.65 67.12V90.08H1792.45Z" fill="var(--fill-0, #0DC267)"/>
<path d="M1741.1 90.08L1757.58 49.28H1750.3L1737.66 82.08H1737.5L1724.7 49.28H1717.58L1734.22 90.08H1741.1Z" fill="var(--fill-0, #0DC267)"/>
<path d="M1698.93 91.36C1702.88 91.36 1706.4 90.4267 1709.49 88.56C1712.53 86.6933 1714.93 84.1333 1716.69 80.88C1718.4 77.6267 1719.25 73.92 1719.25 69.76C1719.25 65.8667 1718.45 62.2667 1716.85 58.96C1715.2 55.6533 1712.91 53.0133 1709.97 51.04C1706.99 49.0133 1703.49 48 1699.49 48C1695.44 48 1691.97 48.9067 1689.09 50.72C1686.16 52.48 1683.92 54.9333 1682.37 58.08C1680.77 61.2267 1679.97 64.8267 1679.97 68.88C1679.97 69.2533 1680 69.6267 1680.05 70C1680.05 70.3733 1680.08 70.6933 1680.13 70.96H1715.25V65.36H1687.17C1687.23 64.24 1687.49 63.04 1687.97 61.76C1688.4 60.4267 1689.12 59.2 1690.13 58.08C1691.09 56.9067 1692.35 55.9733 1693.89 55.28C1695.39 54.5333 1697.25 54.16 1699.49 54.16C1702.16 54.16 1704.48 54.8533 1706.45 56.24C1708.37 57.5733 1709.87 59.4133 1710.93 61.76C1711.95 64.1067 1712.45 66.7733 1712.45 69.76C1712.45 73.2267 1711.79 76.1067 1710.45 78.4C1709.12 80.6933 1707.41 82.4 1705.33 83.52C1703.2 84.64 1700.99 85.2 1698.69 85.2C1695.71 85.2 1693.25 84.5067 1691.33 83.12C1689.36 81.68 1687.79 79.92 1686.61 77.84L1680.85 80.64C1682.45 83.7333 1684.75 86.2933 1687.73 88.32C1690.72 90.3467 1694.45 91.36 1698.93 91.36Z" fill="var(--fill-0, #0DC267)"/>
<path d="M1676.25 90.08V49.28H1669.77V55.84H1669.45C1668.91 54.2933 1668.03 52.96 1666.81 51.84C1665.53 50.6667 1664.09 49.76 1662.49 49.12C1660.83 48.4267 1659.21 48.08 1657.61 48.08C1656.38 48.08 1655.42 48.16 1654.73 48.32C1654.03 48.4267 1653.39 48.6133 1652.81 48.88V56.24C1653.66 55.8133 1654.59 55.4933 1655.61 55.28C1656.57 55.0667 1657.55 54.96 1658.57 54.96C1660.54 54.96 1662.35 55.52 1664.01 56.64C1665.66 57.76 1666.99 59.2533 1668.01 61.12C1668.97 62.9867 1669.45 65.04 1669.45 67.28V90.08H1676.25Z" fill="var(--fill-0, #0DC267)"/>
<path d="M1652.82 55.44V49.28H1645.22V55.44H1652.82ZM1634.26 90.72C1637.67 90.72 1640.42 89.7067 1642.5 87.68C1644.58 85.6 1645.62 82.8267 1645.62 79.36V37.76H1638.82V77.68C1638.82 79.9733 1638.36 81.68 1637.46 82.8C1636.5 83.8667 1635.08 84.4 1633.22 84.4C1632.36 84.4 1631.56 84.2933 1630.82 84.08C1630.07 83.8133 1629.35 83.4667 1628.66 83.04V89.68C1629.51 90 1630.39 90.24 1631.3 90.4C1632.2 90.6133 1633.19 90.72 1634.26 90.72ZM1639.22 55.44V49.28H1628.82V55.44H1639.22Z" fill="var(--fill-0, #0DC267)"/>
<path d="M1624.72 90.08V49.28H1617.92V90.08H1624.72ZM1621.36 41.76C1622.69 41.76 1623.84 41.28 1624.8 40.32C1625.76 39.36 1626.24 38.2133 1626.24 36.88C1626.24 35.4933 1625.76 34.3467 1624.8 33.44C1623.84 32.48 1622.69 32 1621.36 32C1619.97 32 1618.82 32.48 1617.92 33.44C1616.96 34.3467 1616.48 35.4933 1616.48 36.88C1616.48 38.2133 1616.96 39.36 1617.92 40.32C1618.82 41.28 1619.97 41.76 1621.36 41.76Z" fill="var(--fill-0, #0DC267)"/>
<path d="M1612 90.08V49.28H1605.52V55.28H1605.2C1604.13 53.3067 1602.4 51.6 1600 50.16C1597.54 48.72 1594.88 48 1592 48C1586.98 48 1583.22 49.4667 1580.72 52.4C1578.16 55.28 1576.88 59.12 1576.88 63.92V90.08H1583.68V64.96C1583.68 61.0133 1584.64 58.24 1586.56 56.64C1588.42 54.9867 1590.85 54.16 1593.84 54.16C1596.08 54.16 1598.05 54.8 1599.76 56.08C1601.46 57.3067 1602.8 58.9067 1603.76 60.88C1604.72 62.8533 1605.2 64.9333 1605.2 67.12V90.08H1612Z" fill="var(--fill-0, #0DC267)"/>
<path d="M1560.64 90.08L1577.12 49.28H1569.84L1557.2 82.08H1557.04L1544.24 49.28H1537.12L1553.76 90.08H1560.64Z" fill="var(--fill-0, #0DC267)"/>
<path d="M1518.48 91.36C1522.43 91.36 1525.95 90.4267 1529.04 88.56C1532.08 86.6933 1534.48 84.1333 1536.24 80.88C1537.95 77.6267 1538.8 73.92 1538.8 69.76C1538.8 65.8667 1538 62.2667 1536.4 58.96C1534.75 55.6533 1532.45 53.0133 1529.52 51.04C1526.53 49.0133 1523.04 48 1519.04 48C1514.99 48 1511.52 48.9067 1508.64 50.72C1505.71 52.48 1503.47 54.9333 1501.92 58.08C1500.32 61.2267 1499.52 64.8267 1499.52 68.88C1499.52 69.2533 1499.55 69.6267 1499.6 70C1499.6 70.3733 1499.63 70.6933 1499.68 70.96H1534.8V65.36H1506.72C1506.77 64.24 1507.04 63.04 1507.52 61.76C1507.95 60.4267 1508.67 59.2 1509.68 58.08C1510.64 56.9067 1511.89 55.9733 1513.44 55.28C1514.93 54.5333 1516.8 54.16 1519.04 54.16C1521.71 54.16 1524.03 54.8533 1526 56.24C1527.92 57.5733 1529.41 59.4133 1530.48 61.76C1531.49 64.1067 1532 66.7733 1532 69.76C1532 73.2267 1531.33 76.1067 1530 78.4C1528.67 80.6933 1526.96 82.4 1524.88 83.52C1522.75 84.64 1520.53 85.2 1518.24 85.2C1515.25 85.2 1512.8 84.5067 1510.88 83.12C1508.91 81.68 1507.33 79.92 1506.16 77.84L1500.4 80.64C1502 83.7333 1504.29 86.2933 1507.28 88.32C1510.27 90.3467 1514 91.36 1518.48 91.36Z" fill="var(--fill-0, #0DC267)"/>
<path d="M1495.8 90.08V49.28H1489.32V55.84H1489C1488.46 54.2933 1487.58 52.96 1486.36 51.84C1485.08 50.6667 1483.64 49.76 1482.04 49.12C1480.38 48.4267 1478.76 48.08 1477.16 48.08C1475.93 48.08 1474.97 48.16 1474.28 48.32C1473.58 48.4267 1472.94 48.6133 1472.36 48.88V56.24C1473.21 55.8133 1474.14 55.4933 1475.16 55.28C1476.12 55.0667 1477.1 54.96 1478.12 54.96C1480.09 54.96 1481.9 55.52 1483.56 56.64C1485.21 57.76 1486.54 59.2533 1487.56 61.12C1488.52 62.9867 1489 65.04 1489 67.28V90.08H1495.8Z" fill="var(--fill-0, #0DC267)"/>
<path d="M1472.36 55.44V49.28H1464.76V55.44H1472.36ZM1453.8 90.72C1457.22 90.72 1459.96 89.7067 1462.04 87.68C1464.12 85.6 1465.16 82.8267 1465.16 79.36V37.76H1458.36V77.68C1458.36 79.9733 1457.91 81.68 1457 82.8C1456.04 83.8667 1454.63 84.4 1452.76 84.4C1451.91 84.4 1451.11 84.2933 1450.36 84.08C1449.62 83.8133 1448.9 83.4667 1448.2 83.04V89.68C1449.06 90 1449.94 90.24 1450.84 90.4C1451.75 90.6133 1452.74 90.72 1453.8 90.72ZM1458.76 55.44V49.28H1448.36V55.44H1458.76Z" fill="var(--fill-0, #0DC267)"/>
<path d="M1444.26 90.08V49.28H1437.46V90.08H1444.26ZM1440.9 41.76C1442.24 41.76 1443.38 41.28 1444.34 40.32C1445.3 39.36 1445.78 38.2133 1445.78 36.88C1445.78 35.4933 1445.3 34.3467 1444.34 33.44C1443.38 32.48 1442.24 32 1440.9 32C1439.52 32 1438.37 32.48 1437.46 33.44C1436.5 34.3467 1436.02 35.4933 1436.02 36.88C1436.02 38.2133 1436.5 39.36 1437.46 40.32C1438.37 41.28 1439.52 41.76 1440.9 41.76Z" fill="var(--fill-0, #0DC267)"/>
<path d="M1431.55 90.08V49.28H1425.07V55.28H1424.75C1423.68 53.3067 1421.95 51.6 1419.55 50.16C1417.09 48.72 1414.43 48 1411.55 48C1406.53 48 1402.77 49.4667 1400.27 52.4C1397.71 55.28 1396.43 59.12 1396.43 63.92V90.08H1403.23V64.96C1403.23 61.0133 1404.19 58.24 1406.11 56.64C1407.97 54.9867 1410.4 54.16 1413.39 54.16C1415.63 54.16 1417.6 54.8 1419.31 56.08C1421.01 57.3067 1422.35 58.9067 1423.31 60.88C1424.27 62.8533 1424.75 64.9333 1424.75 67.12V90.08H1431.55Z" fill="var(--fill-0, #0DC267)"/>
<path d="M1380.19 90.08L1396.67 49.28H1389.39L1376.75 82.08H1376.59L1363.79 49.28H1356.67L1373.31 90.08H1380.19Z" fill="var(--fill-0, #0DC267)"/>
<path d="M1338.03 91.36C1341.97 91.36 1345.49 90.4267 1348.59 88.56C1351.63 86.6933 1354.03 84.1333 1355.79 80.88C1357.49 77.6267 1358.35 73.92 1358.35 69.76C1358.35 65.8667 1357.55 62.2667 1355.95 58.96C1354.29 55.6533 1352 53.0133 1349.07 51.04C1346.08 49.0133 1342.59 48 1338.59 48C1334.53 48 1331.07 48.9067 1328.19 50.72C1325.25 52.48 1323.01 54.9333 1321.47 58.08C1319.87 61.2267 1319.07 64.8267 1319.07 68.88C1319.07 69.2533 1319.09 69.6267 1319.15 70C1319.15 70.3733 1319.17 70.6933 1319.23 70.96H1354.35V65.36H1326.27C1326.32 64.24 1326.59 63.04 1327.07 61.76C1327.49 60.4267 1328.21 59.2 1329.23 58.08C1330.19 56.9067 1331.44 55.9733 1332.99 55.28C1334.48 54.5333 1336.35 54.16 1338.59 54.16C1341.25 54.16 1343.57 54.8533 1345.55 56.24C1347.47 57.5733 1348.96 59.4133 1350.03 61.76C1351.04 64.1067 1351.55 66.7733 1351.55 69.76C1351.55 73.2267 1350.88 76.1067 1349.55 78.4C1348.21 80.6933 1346.51 82.4 1344.43 83.52C1342.29 84.64 1340.08 85.2 1337.79 85.2C1334.8 85.2 1332.35 84.5067 1330.43 83.12C1328.45 81.68 1326.88 79.92 1325.71 77.84L1319.95 80.64C1321.55 83.7333 1323.84 86.2933 1326.83 88.32C1329.81 90.3467 1333.55 91.36 1338.03 91.36Z" fill="var(--fill-0, #0DC267)"/>
<path d="M1315.34 90.08V49.28H1308.86V55.84H1308.54C1308.01 54.2933 1307.13 52.96 1305.9 51.84C1304.62 50.6667 1303.18 49.76 1301.58 49.12C1299.93 48.4267 1298.3 48.08 1296.7 48.08C1295.48 48.08 1294.52 48.16 1293.82 48.32C1293.13 48.4267 1292.49 48.6133 1291.9 48.88V56.24C1292.76 55.8133 1293.69 55.4933 1294.7 55.28C1295.66 55.0667 1296.65 54.96 1297.66 54.96C1299.64 54.96 1301.45 55.52 1303.1 56.64C1304.76 57.76 1306.09 59.2533 1307.1 61.12C1308.06 62.9867 1308.54 65.04 1308.54 67.28V90.08H1315.34Z" fill="var(--fill-0, #0DC267)"/>
<path d="M1291.91 55.44V49.28H1284.31V55.44H1291.91ZM1273.35 90.72C1276.76 90.72 1279.51 89.7067 1281.59 87.68C1283.67 85.6 1284.71 82.8267 1284.71 79.36V37.76H1277.91V77.68C1277.91 79.9733 1277.46 81.68 1276.55 82.8C1275.59 83.8667 1274.18 84.4 1272.31 84.4C1271.46 84.4 1270.66 84.2933 1269.91 84.08C1269.16 83.8133 1268.44 83.4667 1267.75 83.04V89.68C1268.6 90 1269.48 90.24 1270.39 90.4C1271.3 90.6133 1272.28 90.72 1273.35 90.72ZM1278.31 55.44V49.28H1267.91V55.44H1278.31Z" fill="var(--fill-0, #0DC267)"/>
<path d="M1263.81 90.08V49.28H1257.01V90.08H1263.81ZM1260.45 41.76C1261.78 41.76 1262.93 41.28 1263.89 40.32C1264.85 39.36 1265.33 38.2133 1265.33 36.88C1265.33 35.4933 1264.85 34.3467 1263.89 33.44C1262.93 32.48 1261.78 32 1260.45 32C1259.06 32 1257.92 32.48 1257.01 33.44C1256.05 34.3467 1255.57 35.4933 1255.57 36.88C1255.57 38.2133 1256.05 39.36 1257.01 40.32C1257.92 41.28 1259.06 41.76 1260.45 41.76Z" fill="var(--fill-0, #0DC267)"/>
<path d="M1251.09 90.08V49.28H1244.61V55.28H1244.29C1243.23 53.3067 1241.49 51.6 1239.09 50.16C1236.64 48.72 1233.97 48 1231.09 48C1226.08 48 1222.32 49.4667 1219.81 52.4C1217.25 55.28 1215.97 59.12 1215.97 63.92V90.08H1222.77V64.96C1222.77 61.0133 1223.73 58.24 1225.65 56.64C1227.52 54.9867 1229.95 54.16 1232.93 54.16C1235.17 54.16 1237.15 54.8 1238.85 56.08C1240.56 57.3067 1241.89 58.9067 1242.85 60.88C1243.81 62.8533 1244.29 64.9333 1244.29 67.12V90.08H1251.09Z" fill="var(--fill-0, #0DC267)"/>
<path d="M1199.74 90.08L1216.22 49.28H1208.94L1196.3 82.08H1196.14L1183.34 49.28H1176.22L1192.86 90.08H1199.74Z" fill="var(--fill-0, #0DC267)"/>
<path d="M1157.57 91.36C1161.52 91.36 1165.04 90.4267 1168.13 88.56C1171.17 86.6933 1173.57 84.1333 1175.33 80.88C1177.04 77.6267 1177.89 73.92 1177.89 69.76C1177.89 65.8667 1177.09 62.2667 1175.49 58.96C1173.84 55.6533 1171.55 53.0133 1168.61 51.04C1165.63 49.0133 1162.13 48 1158.13 48C1154.08 48 1150.61 48.9067 1147.73 50.72C1144.8 52.48 1142.56 54.9333 1141.01 58.08C1139.41 61.2267 1138.61 64.8267 1138.61 68.88C1138.61 69.2533 1138.64 69.6267 1138.69 70C1138.69 70.3733 1138.72 70.6933 1138.77 70.96H1173.89V65.36H1145.81C1145.87 64.24 1146.13 63.04 1146.61 61.76C1147.04 60.4267 1147.76 59.2 1148.77 58.08C1149.73 56.9067 1150.99 55.9733 1152.53 55.28C1154.03 54.5333 1155.89 54.16 1158.13 54.16C1160.8 54.16 1163.12 54.8533 1165.09 56.24C1167.01 57.5733 1168.51 59.4133 1169.57 61.76C1170.59 64.1067 1171.09 66.7733 1171.09 69.76C1171.09 73.2267 1170.43 76.1067 1169.09 78.4C1167.76 80.6933 1166.05 82.4 1163.97 83.52C1161.84 84.64 1159.63 85.2 1157.33 85.2C1154.35 85.2 1151.89 84.5067 1149.97 83.12C1148 81.68 1146.43 79.92 1145.25 77.84L1139.49 80.64C1141.09 83.7333 1143.39 86.2933 1146.37 88.32C1149.36 90.3467 1153.09 91.36 1157.57 91.36Z" fill="var(--fill-0, #0DC267)"/>
<path d="M1134.89 90.08V49.28H1128.41V55.84H1128.09C1127.56 54.2933 1126.68 52.96 1125.45 51.84C1124.17 50.6667 1122.73 49.76 1121.13 49.12C1119.48 48.4267 1117.85 48.08 1116.25 48.08C1115.02 48.08 1114.06 48.16 1113.37 48.32C1112.68 48.4267 1112.04 48.6133 1111.45 48.88V56.24C1112.3 55.8133 1113.24 55.4933 1114.25 55.28C1115.21 55.0667 1116.2 54.96 1117.21 54.96C1119.18 54.96 1121 55.52 1122.65 56.64C1124.3 57.76 1125.64 59.2533 1126.65 61.12C1127.61 62.9867 1128.09 65.04 1128.09 67.28V90.08H1134.89Z" fill="var(--fill-0, #0DC267)"/>
<path d="M1111.46 55.44V49.28H1103.86V55.44H1111.46ZM1092.9 90.72C1096.31 90.72 1099.06 89.7067 1101.14 87.68C1103.22 85.6 1104.26 82.8267 1104.26 79.36V37.76H1097.46V77.68C1097.46 79.9733 1097 81.68 1096.1 82.8C1095.14 83.8667 1093.72 84.4 1091.86 84.4C1091 84.4 1090.2 84.2933 1089.46 84.08C1088.71 83.8133 1087.99 83.4667 1087.3 83.04V89.68C1088.15 90 1089.03 90.24 1089.94 90.4C1090.84 90.6133 1091.83 90.72 1092.9 90.72ZM1097.86 55.44V49.28H1087.46V55.44H1097.86Z" fill="var(--fill-0, #0DC267)"/>
<path d="M1083.36 90.08V49.28H1076.56V90.08H1083.36ZM1080 41.76C1081.33 41.76 1082.48 41.28 1083.44 40.32C1084.4 39.36 1084.88 38.2133 1084.88 36.88C1084.88 35.4933 1084.4 34.3467 1083.44 33.44C1082.48 32.48 1081.33 32 1080 32C1078.61 32 1077.46 32.48 1076.56 33.44C1075.6 34.3467 1075.12 35.4933 1075.12 36.88C1075.12 38.2133 1075.6 39.36 1076.56 40.32C1077.46 41.28 1078.61 41.76 1080 41.76Z" fill="var(--fill-0, #0DC267)"/>
<path d="M1070.64 90.08V49.28H1064.16V55.28H1063.84C1062.77 53.3067 1061.04 51.6 1058.64 50.16C1056.19 48.72 1053.52 48 1050.64 48C1045.63 48 1041.87 49.4667 1039.36 52.4C1036.8 55.28 1035.52 59.12 1035.52 63.92V90.08H1042.32V64.96C1042.32 61.0133 1043.28 58.24 1045.2 56.64C1047.07 54.9867 1049.49 54.16 1052.48 54.16C1054.72 54.16 1056.69 54.8 1058.4 56.08C1060.11 57.3067 1061.44 58.9067 1062.4 60.88C1063.36 62.8533 1063.84 64.9333 1063.84 67.12V90.08H1070.64Z" fill="var(--fill-0, #0DC267)"/>
<path d="M1019.28 90.08L1035.76 49.28H1028.48L1015.84 82.08H1015.68L1002.88 49.28H995.763L1012.4 90.08H1019.28Z" fill="var(--fill-0, #0DC267)"/>
<path d="M977.119 91.36C981.066 91.36 984.586 90.4267 987.679 88.56C990.719 86.6933 993.119 84.1333 994.879 80.88C996.586 77.6267 997.439 73.92 997.439 69.76C997.439 65.8667 996.639 62.2667 995.039 58.96C993.386 55.6533 991.093 53.0133 988.159 51.04C985.173 49.0133 981.679 48 977.679 48C973.626 48 970.159 48.9067 967.279 50.72C964.346 52.48 962.106 54.9333 960.559 58.08C958.959 61.2267 958.159 64.8267 958.159 68.88C958.159 69.2533 958.186 69.6267 958.239 70C958.239 70.3733 958.266 70.6933 958.319 70.96H993.439V65.36H965.359C965.413 64.24 965.679 63.04 966.159 61.76C966.586 60.4267 967.306 59.2 968.319 58.08C969.279 56.9067 970.533 55.9733 972.079 55.28C973.573 54.5333 975.439 54.16 977.679 54.16C980.346 54.16 982.666 54.8533 984.639 56.24C986.559 57.5733 988.053 59.4133 989.119 61.76C990.133 64.1067 990.639 66.7733 990.639 69.76C990.639 73.2267 989.973 76.1067 988.639 78.4C987.306 80.6933 985.599 82.4 983.519 83.52C981.386 84.64 979.173 85.2 976.879 85.2C973.893 85.2 971.439 84.5067 969.519 83.12C967.546 81.68 965.973 79.92 964.799 77.84L959.039 80.64C960.639 83.7333 962.933 86.2933 965.919 88.32C968.906 90.3467 972.639 91.36 977.119 91.36Z" fill="var(--fill-0, #0DC267)"/>
<path d="M954.436 90.08V49.28H947.956V55.84H947.636C947.102 54.2933 946.222 52.96 944.996 51.84C943.716 50.6667 942.276 49.76 940.676 49.12C939.022 48.4267 937.396 48.08 935.796 48.08C934.569 48.08 933.609 48.16 932.916 48.32C932.222 48.4267 931.582 48.6133 930.996 48.88V56.24C931.849 55.8133 932.782 55.4933 933.796 55.28C934.756 55.0667 935.742 54.96 936.756 54.96C938.729 54.96 940.542 55.52 942.196 56.64C943.849 57.76 945.182 59.2533 946.196 61.12C947.156 62.9867 947.636 65.04 947.636 67.28V90.08H954.436Z" fill="var(--fill-0, #0DC267)"/>
<path d="M931.005 55.44V49.28H923.405V55.44H931.005ZM912.445 90.72C915.858 90.72 918.605 89.7067 920.685 87.68C922.765 85.6 923.805 82.8267 923.805 79.36V37.76H917.005V77.68C917.005 79.9733 916.552 81.68 915.645 82.8C914.685 83.8667 913.272 84.4 911.405 84.4C910.552 84.4 909.752 84.2933 909.005 84.08C908.258 83.8133 907.538 83.4667 906.845 83.04V89.68C907.698 90 908.578 90.24 909.485 90.4C910.392 90.6133 911.378 90.72 912.445 90.72ZM917.405 55.44V49.28H907.005V55.44H917.405Z" fill="var(--fill-0, #0DC267)"/>
</g>
</g>
</svg>
