<svg preserveAspectRatio="none" width="100%" height="100%" overflow="visible" style="display: block;" viewBox="0 0 108.485 16.0067" fill="none" xmlns="http://www.w3.org/2000/svg">
<g id="Group" opacity="0.4">
<path id="Vector" d="M16.8067 12.6606C16.0279 13.7759 15.416 14.1106 14.0252 14.1106H8.96276V13.999C8.85153 14.1106 10.0198 13.1067 11.6887 11.824C13.8027 10.2067 16.1947 8.53367 16.1947 5.68942C16.1947 3.01249 13.747 1.84134 11.4106 1.84134C10.1311 1.84134 8.51775 2.45481 7.79455 2.95673C7.79455 2.95673 7.68329 4.23942 7.62767 5.3548H7.96145C8.46212 4.57404 9.01844 3.96058 9.63034 3.51442C10.1311 3.1798 10.6873 2.95673 11.6331 2.95673C13.2464 2.95673 14.4146 4.23942 14.3589 5.63365C14.3033 7.36249 13.0794 8.92403 11.6887 10.3183C8.85153 13.1067 7.01573 14.724 7.01573 14.724V15.7837H14.5259C15.416 15.7837 16.0279 15.7837 16.8067 15.8394L17.0848 12.6606H16.8067Z" fill="var(--fill-0, #333037)"/>
<path id="Vector_2" d="M55.3463 9.64907C55.3463 6.35865 53.8443 2.90096 50.729 2.90096C48.1699 2.90096 46.5567 5.3548 46.5567 8.53367C46.5567 12.2144 48.4481 14.9471 51.2852 14.9471C53.733 15.0029 55.3463 12.7164 55.3463 9.64907ZM44.3315 9.09132C44.3315 4.68558 47.4468 1.84134 50.9515 1.84134C54.6787 1.84134 57.5159 4.57404 57.5159 8.92403C57.5159 13.1067 54.5675 16.0067 51.0071 16.0067C47.2242 16.0067 44.3315 13.274 44.3315 9.09132Z" fill="var(--fill-0, #333037)"/>
<path id="Vector_3" d="M78.9448 6.74903C78.8336 4.57404 77.6097 2.95673 75.3289 2.95673C73.048 2.95673 71.8241 4.90865 71.6016 7.08365L78.9448 6.74903ZM69.599 9.20286C69.599 4.90865 72.2135 1.84134 75.8851 1.84134C79.0561 1.84134 81.0588 3.73749 81.0588 7.25096C81.0588 7.47403 81.0032 7.64134 81.0032 7.86442H71.546C71.4904 8.14327 71.4904 8.36634 71.4904 8.58943C71.4904 11.8798 73.2149 14.501 76.7197 14.501C78.4998 14.501 79.668 14.0548 80.7806 13.4971C80.6138 14.1106 80.28 14.6125 79.8349 15.0586C79.0561 15.6721 77.8879 16.0067 76.1633 16.0067C72.0467 16.0067 69.599 13.3298 69.599 9.20286Z" fill="var(--fill-0, #333037)"/>
<path id="Vector_4" d="M92.6205 6.74903C92.5097 4.57404 91.2854 2.95673 89.0049 2.95673C86.724 2.95673 85.5002 4.90865 85.2777 7.08365L92.6205 6.74903ZM83.2193 9.20286C83.2193 4.90865 85.834 1.84134 89.5052 1.84134C92.6768 1.84134 94.6796 3.73749 94.6796 7.25096C94.6796 7.47403 94.6233 7.64134 94.6233 7.86442H85.1664C85.1107 8.14327 85.1107 8.36634 85.1107 8.58943C85.1107 11.8798 86.8353 14.501 90.3399 14.501C92.1201 14.501 93.2881 14.0548 94.4008 13.4971C94.2345 14.1106 93.9003 14.6125 93.4552 15.0586C92.6768 15.6721 91.5079 16.0067 89.784 16.0067C85.667 16.0067 83.2193 13.3298 83.2193 9.20286Z" fill="var(--fill-0, #333037)"/>
<path id="Vector_5" d="M67.9256 1.95288C67.6474 1.89711 67.3136 1.84134 66.9243 1.84134C64.7547 1.84134 62.9189 3.79326 62.9189 3.79326V1.84134L59.5254 3.29134L61.083 4.57404V13.4413C61.083 14.4452 60.8605 15.0586 59.8036 15.6164V15.7837H64.3653V15.6164C63.1971 15.0586 62.8633 14.4452 62.8633 13.4413V4.57404C63.809 3.96058 64.6434 3.68173 65.6448 3.68173C66.5905 3.68173 67.4249 3.96058 68.0925 4.4625H68.1482L67.9256 1.95288Z" fill="var(--fill-0, #333037)"/>
<path id="Vector_6" d="M40.1058 14.5558C38.6593 14.5558 37.7693 13.7193 37.7693 12.2693V3.625H42.6092L42.7204 2.56538H37.7693V0H37.6581L34.209 3.51347V3.625H35.9891L35.9335 12.2135C35.8778 14.6673 37.3243 16.0058 39.6051 16.0058C41.3853 16.0058 42.6648 15.2808 42.8317 13.775C42.1641 14.2212 41.274 14.5558 40.1058 14.5558Z" fill="var(--fill-0, #333037)"/>
<path id="Vector_7" d="M27.6056 7.80601C26.1036 7.19255 24.824 6.46755 24.824 5.57524C24.824 4.18101 26.0479 3.00986 27.6612 3.00986C28.5513 3.00986 29.1632 3.23293 29.664 3.56754C30.2759 4.0137 30.8322 4.62717 31.3328 5.40793H31.6666C31.611 4.29254 31.4998 3.00986 31.4998 3.00986C30.7765 2.50793 29.1077 1.89447 27.8838 1.89447C25.5473 1.89447 23.5446 3.2887 23.5446 5.90985C23.5446 8.75405 26.3261 9.59063 28.4401 10.4272C29.8308 10.9849 30.9435 11.4868 30.9435 12.5464C30.9435 13.9406 29.7752 14.7771 28.0507 14.7771C27.6612 14.7771 27.2718 14.7214 26.9381 14.6656C26.1592 14.5541 25.436 14.2195 24.9353 13.6618C24.5459 13.3272 24.2121 12.881 23.934 12.3233H23.6002C23.6558 13.2156 23.7115 13.9964 23.7671 14.7214C24.2678 15.1118 25.6586 16.0041 27.8838 16.0041C30.554 16.0041 32.3898 14.5541 32.3898 12.2676C32.2785 9.59063 29.7196 8.69828 27.6056 7.80601Z" fill="var(--fill-0, #333037)"/>
<path id="Vector_8" d="M107.985 12.9954C107.428 13.9993 106.872 14.7242 105.648 14.7242H99.6404L108.485 2.17615H97.248L96.9138 5.24345H97.248C97.971 4.12807 98.6386 3.29153 99.863 3.29153H105.425L96.6913 15.7839H108.04L108.318 12.9954H107.985Z" fill="var(--fill-0, #333037)"/>
<path id="Vector_9" d="M3.56036 13.4413V5.46634V5.07596V1.84134H3.44909L0 5.3548V5.46634H1.78017V13.4413C1.78017 14.4452 1.55766 15.0586 0.500675 15.6164V15.7837H5.06238V15.6164C3.89414 15.0586 3.56036 14.4452 3.56036 13.4413Z" fill="var(--fill-0, #333037)"/>
</g>
</svg>
