<svg preserveAspectRatio="none" width="100%" height="100%" overflow="visible" style="display: block;" viewBox="0 0 49 40" fill="none" xmlns="http://www.w3.org/2000/svg">
<g id="SVG" clip-path="url(#clip0_521_2238)">
<path id="Vector" d="M4.2036 17.2565C16.9189 11.6859 25.3978 8.01341 29.6402 6.23905C41.7532 1.17288 44.2702 0.292835 45.9108 0.263465C46.2716 0.257384 47.0783 0.347301 47.6009 0.773698C48.0422 1.13374 48.1636 1.62011 48.2217 1.96146C48.2798 2.30282 48.3521 3.08045 48.2946 3.68806C47.6382 10.6233 44.798 27.4532 43.353 35.2207C42.7416 38.5074 41.5377 39.6095 40.3722 39.7173C37.8392 39.9517 35.9158 38.0341 33.4625 36.417C29.6236 33.8866 27.4549 32.3114 23.7286 29.8422C19.4222 26.9886 22.2139 25.4202 24.6681 22.857C25.3103 22.1862 36.4705 11.9789 36.6865 11.0529C36.7136 10.9371 36.7386 10.5054 36.4836 10.2775C36.2286 10.0495 35.8521 10.1275 35.5805 10.1895C35.1955 10.2773 29.0628 14.3533 17.1825 22.4174C15.4417 23.6193 13.865 24.205 12.4523 24.1743C10.895 24.1404 7.89924 23.2888 5.67221 22.5609C2.94067 21.668 0.769698 21.196 0.958741 19.6797C1.05721 18.8899 2.13883 18.0822 4.2036 17.2565Z" fill="var(--fill-0, black)"/>
</g>
<defs>
<clipPath id="clip0_521_2238">
<rect width="49" height="40" fill="white"/>
</clipPath>
</defs>
</svg>
