<svg preserveAspectRatio="none" width="100%" height="100%" overflow="visible" style="display: block;" viewBox="0 0 137.368 24" fill="none" xmlns="http://www.w3.org/2000/svg">
<g id="Group">
<path id="Vector" d="M41.7171 14.8902C41.7171 16.7122 40.0208 18.0316 37.6333 18.0316H32.0417V6.72266H37.4448C39.7695 6.72266 41.403 7.97921 41.403 9.73836C41.403 10.9321 40.7747 11.686 39.8323 12.1258C40.8375 12.5028 41.7171 13.508 41.7171 14.8902ZM34.492 8.79596V11.2462H37.382C38.2616 11.2462 38.8271 10.7436 38.8271 10.0525C38.8271 9.36141 38.1988 8.79596 37.382 8.79596H34.492ZM37.6333 15.9583C38.5758 15.9583 39.2669 15.3928 39.2669 14.5761C39.2669 13.7593 38.6386 13.1939 37.6333 13.1939H34.492V15.9583H37.6333Z" fill="var(--fill-0, #BBBABC)"/>
<path id="Vector_2" d="M50.9525 17.9687L47.0574 13.508H46.4291V17.9687H43.916V6.72266H46.4291V11.0577H47.0574L50.827 6.72266H53.78L49.0678 12.1258L54.2195 17.9687H50.9525Z" fill="var(--fill-0, #BBBABC)"/>
<path id="Vector_3" d="M54.2195 12.3769C54.2195 8.98419 56.733 6.53394 60.251 6.53394C63.7695 6.53394 66.2825 8.98419 66.2825 12.3769C66.2825 15.7695 63.7695 18.2198 60.251 18.2198C56.733 18.2198 54.2195 15.7695 54.2195 12.3769ZM63.644 12.3769C63.644 10.2407 62.2615 8.79574 60.251 8.79574C58.2405 8.79574 56.8585 10.2407 56.8585 12.3769C56.8585 14.513 58.2405 15.958 60.251 15.958C62.2615 15.958 63.644 14.513 63.644 12.3769Z" fill="var(--fill-0, #BBBABC)"/>
<path id="Vector_4" d="M75.895 6.72266H78.4085V17.9687H75.895V13.4452H70.869V17.9687H68.356V6.72266H70.869V11.1834H75.895V6.72266Z" fill="var(--fill-0, #BBBABC)"/>
<path id="Vector_5" d="M83.8115 17.9687V8.98441H79.916V6.72266H90.157V8.98441H86.2615V17.9687H83.8115Z" fill="var(--fill-0, #BBBABC)"/>
<path id="Vector_6" d="M100.963 11.6858V17.9685H99.141L98.6385 16.2093C98.073 17.1517 96.8795 18.2198 95.0575 18.2198C92.7955 18.2198 91.162 16.7119 91.162 14.6386C91.162 12.5653 92.7955 11.1203 96.1255 11.1203H98.5755C98.45 9.67529 97.696 8.67009 96.314 8.67009C95.183 8.67009 94.429 9.29834 94.052 9.98944L91.7905 9.61249C92.356 7.66484 94.3035 6.53394 96.4395 6.53394C99.204 6.53394 100.963 8.41874 100.963 11.6858ZM98.513 13.068H96.1885C94.3035 13.068 93.675 13.6962 93.675 14.513C93.675 15.4554 94.429 16.0837 95.6855 16.0837C97.319 16.0837 98.513 14.89 98.513 13.068Z" fill="var(--fill-0, #BBBABC)"/>
<path id="Vector_7" d="M110.638 17.9687L106.743 13.508H106.115V17.9687H103.602V6.72266H106.115V11.0577H106.743L110.513 6.72266H113.466L108.754 12.1258L113.905 17.9687H110.638Z" fill="var(--fill-0, #BBBABC)"/>
<path id="Vector_8" d="M118.429 17.9687V8.98441H114.534V6.72266H124.775V8.98441H120.88V17.9687H118.429Z" fill="var(--fill-0, #BBBABC)"/>
<path id="Vector_9" d="M137.34 13.068H128.293C128.545 14.8271 129.801 15.958 131.686 15.958C133.005 15.958 134.011 15.3926 134.576 14.5758L136.901 14.9528C136.084 17.0889 133.885 18.2198 131.497 18.2198C128.105 18.2198 125.655 15.7695 125.655 12.3769C125.655 8.98419 128.105 6.53394 131.497 6.53394C134.89 6.53394 137.34 8.98419 137.34 12.2512C137.403 12.5653 137.34 12.8167 137.34 13.068ZM128.482 11.1203H134.702C134.262 9.73814 133.131 8.73289 131.56 8.73289C130.052 8.67009 128.859 9.67529 128.482 11.1203Z" fill="var(--fill-0, #BBBABC)"/>
<path id="Vector_10" d="M0 11.52C0 6.0894 0 3.37413 1.68707 1.68707C3.37413 0 6.0894 0 11.52 0H12.48C17.9106 0 20.6259 0 22.313 1.68707C24 3.37413 24 6.0894 24 11.52V12.48C24 17.9106 24 20.6259 22.313 22.313C20.6259 24 17.9106 24 12.48 24H11.52C6.0894 24 3.37413 24 1.68707 22.313C0 20.6259 0 17.9106 0 12.48V11.52Z" fill="var(--fill-0, #BBBABC)"/>
<path id="Vector_11" d="M12.77 17.29C7.3 17.29 4.18005 13.54 4.05005 7.30005H6.79005C6.88005 11.88 8.9 13.82 10.5 14.22V7.30005H13.0801V11.25C14.6601 11.08 16.3199 9.28005 16.8799 7.30005H19.4599C19.0299 9.74005 17.2299 11.54 15.9499 12.28C17.2299 12.88 19.28 14.45 20.06 17.29H17.2199C16.6099 15.39 15.0901 13.92 13.0801 13.72V17.29H12.77Z" fill="var(--fill-0, white)"/>
</g>
</svg>
