<svg preserveAspectRatio="none" width="100%" height="100%" overflow="visible" style="display: block;" viewBox="0 0 16 16" fill="none" xmlns="http://www.w3.org/2000/svg">
<g id="Frame" clip-path="url(#clip0_117_3797)">
<path id="Vector" d="M12.5 9C12.9644 9 13.1967 8.99973 13.3916 9.02539C14.7378 9.20262 15.7974 10.2622 15.9746 11.6084C16.0003 11.8033 16 12.0356 16 12.5C16 12.9644 16.0003 13.1967 15.9746 13.3916L15.9307 13.6406C15.6633 14.8668 14.6536 15.8085 13.3916 15.9746L13.2354 15.9893C13.066 16.0001 12.8483 16 12.5 16H3.5L2.95312 15.9971C2.88289 15.9955 2.82108 15.9929 2.76465 15.9893L2.6084 15.9746C1.3464 15.8085 0.336742 14.8668 0.069336 13.6406L0.0253907 13.3916C-0.000272961 13.1967 1.18578e-07 12.9644 1.18578e-07 12.5C1.18578e-07 12.0356 -0.000272961 11.8033 0.0253907 11.6084C0.202621 10.2622 1.2622 9.20262 2.6084 9.02539C2.80334 8.99973 3.03559 9 3.5 9H12.5ZM2.99902 11.0029C2.89586 11.0053 2.86914 11.0088 2.86914 11.0088C2.4207 11.068 2.06799 11.4207 2.00879 11.8691C2.00879 11.8691 2.00529 11.8959 2.00293 11.999C2.00037 12.1113 2 12.2589 2 12.5C2 12.7411 2.00037 12.8887 2.00293 13.001C2.00529 13.1041 2.00879 13.1309 2.00879 13.1309C2.06799 13.5793 2.4207 13.932 2.86914 13.9912C2.86914 13.9912 2.89586 13.9947 2.99902 13.9971C3.11135 13.9996 3.2589 14 3.5 14H12.5C12.7411 14 12.8887 13.9996 13.001 13.9971C13.1041 13.9947 13.1309 13.9912 13.1309 13.9912C13.5793 13.932 13.932 13.5793 13.9912 13.1309C13.9912 13.1309 13.9947 13.1041 13.9971 13.001C13.9996 12.8887 14 12.7411 14 12.5C14 12.2589 13.9996 12.1113 13.9971 11.999C13.9947 11.8959 13.9912 11.8691 13.9912 11.8691C13.932 11.4207 13.5793 11.068 13.1309 11.0088C13.1309 11.0088 13.1041 11.0053 13.001 11.0029C12.8887 11.0004 12.7411 11 12.5 11H3.5C3.2589 11 3.11135 11.0004 2.99902 11.0029ZM12.5 1.18578e-07C12.9644 1.18578e-07 13.1967 -0.000272946 13.3916 0.0253907C14.7378 0.202621 15.7974 1.2622 15.9746 2.6084C16.0003 2.80334 16 3.03559 16 3.5C16 3.96441 16.0003 4.19666 15.9746 4.3916L15.9307 4.64062C15.6633 5.8668 14.6536 6.80846 13.3916 6.97461L13.2354 6.98926C13.066 7.00009 12.8483 7 12.5 7H3.5L2.95312 6.99707C2.88289 6.99547 2.82108 6.99287 2.76465 6.98926L2.6084 6.97461C1.3464 6.80846 0.336742 5.8668 0.069336 4.64062L0.0253907 4.3916C-0.000272946 4.19666 1.18578e-07 3.96441 1.18578e-07 3.5C1.18578e-07 3.03559 -0.000272961 2.80334 0.0253907 2.6084C0.202621 1.2622 1.2622 0.202621 2.6084 0.0253907C2.80334 -0.000272961 3.03559 1.18578e-07 3.5 1.18578e-07H12.5ZM2.99902 2.00293C2.89586 2.00529 2.86914 2.00879 2.86914 2.00879C2.4207 2.06799 2.06799 2.4207 2.00879 2.86914C2.00879 2.86914 2.00529 2.89586 2.00293 2.99902C2.00037 3.11135 2 3.2589 2 3.5C2 3.7411 2.00037 3.88865 2.00293 4.00098C2.00529 4.10415 2.00879 4.13086 2.00879 4.13086C2.06799 4.5793 2.4207 4.93201 2.86914 4.99121C2.86914 4.99121 2.89586 4.99471 2.99902 4.99707C3.11135 4.99963 3.2589 5 3.5 5H12.5C12.7411 5 12.8887 4.99963 13.001 4.99707C13.1041 4.99471 13.1309 4.99121 13.1309 4.99121C13.5793 4.93201 13.932 4.5793 13.9912 4.13086C13.9912 4.13086 13.9947 4.10415 13.9971 4.00098C13.9996 3.88865 14 3.7411 14 3.5C14 3.2589 13.9996 3.11135 13.9971 2.99902C13.9947 2.89586 13.9912 2.86914 13.9912 2.86914C13.932 2.4207 13.5793 2.06799 13.1309 2.00879C13.1309 2.00879 13.1041 2.00529 13.001 2.00293C12.8887 2.00037 12.7411 2 12.5 2H3.5C3.2589 2 3.11135 2.00037 2.99902 2.00293Z" fill="var(--fill-0, #222222)"/>
</g>
<defs>
<clipPath id="clip0_117_3797">
<rect width="16" height="16" fill="white"/>
</clipPath>
</defs>
</svg>
