<svg preserveAspectRatio="none" width="100%" height="100%" overflow="visible" style="display: block;" viewBox="0 0 80.4498 23.2701" fill="none" xmlns="http://www.w3.org/2000/svg">
<g id="Group" opacity="0.3">
<path id="Vector" d="M76.9109 20.2626C78.4935 20.2626 79.6146 19.9772 80.4498 19.3625V16.5745C79.5926 17.1672 78.5594 17.5404 77.1087 17.5404C74.6688 17.5404 73.6577 15.6524 73.6577 12.6668C73.6577 9.52757 74.8887 7.92505 77.1307 7.92505C78.4495 7.92505 79.7464 8.38606 80.4279 8.82511V5.92733C79.7024 5.53218 78.4495 5.2468 76.735 5.2468C72.3609 5.2468 70.0968 8.38606 70.0968 12.7767C70.1189 17.5843 72.3389 20.2626 76.9109 20.2626ZM55.5236 18.9893V16.2013C54.4685 16.9257 52.666 17.5624 51.0175 17.5624C48.5117 17.5624 47.5665 16.3769 47.4127 13.9621H55.6774V12.1619C55.6774 7.13474 53.4574 5.2468 50.0504 5.2468C45.874 5.2468 43.8957 8.42996 43.8957 12.7985C43.8957 17.8258 46.3795 20.2626 50.7317 20.2626C52.9078 20.2626 54.5125 19.6699 55.5236 18.9893ZM24.157 5.51023V11.218H19.5849V5.51023H16.1559V19.9772H19.5849V13.9402H24.157V19.9772H27.5859V5.51023H24.157ZM43.0384 17.255H41.5218V5.51023H31.5425V6.73959C31.5425 10.274 31.3227 14.8402 30.1138 17.255H29.0147V23.2701H32.1799V19.9772H39.8512V23.2701H43.0165V17.255H43.0384ZM66.448 19.9772H70.3386L64.8435 12.1839L69.6792 5.51023H66.2283L61.3924 12.1839V5.51023H57.9634V19.9772H61.3924V12.8644L66.448 19.9772ZM49.9624 7.92505C51.6549 7.92505 52.1825 9.33007 52.1825 11.1522V11.4375H47.4127C47.5005 9.13246 48.3358 7.92505 49.9624 7.92505ZM38.0928 17.255H33.257C34.2022 15.0817 34.466 11.1302 34.466 8.62754V8.18848H38.0928V17.255Z" fill="var(--fill-0, #333037)"/>
<path id="Vector_2" d="M13.2983 19.9771H9.80341V2.70021H8.24281C5.3853 2.70021 3.8906 4.12714 3.8906 6.25658C3.8906 8.67139 4.9237 9.79097 7.05584 11.218L8.81431 12.4034L3.75872 19.9771H0L4.55003 13.2156C1.93431 11.3497 0.461597 9.52757 0.461597 6.45415C0.461597 2.61239 3.14326 0 8.22082 0H13.2764V19.9771H13.2983Z" fill="var(--fill-0, #333037)"/>
</g>
</svg>
