<svg preserveAspectRatio="none" width="100%" height="100%" overflow="visible" style="display: block;" viewBox="0 0 17.1888 15.3125" fill="none" xmlns="http://www.w3.org/2000/svg">
<path id="Vector" d="M5.46814 8.50537L12.5197 14.6874C12.6009 14.7591 12.6994 14.8084 12.8054 14.8305C12.9115 14.8527 13.0214 14.8469 13.1245 14.8137C13.2277 14.7805 13.3204 14.7211 13.3936 14.6413C13.4669 14.5615 13.5181 14.4641 13.5424 14.3585L16.7181 0.56396C16.7212 0.550127 16.7205 0.535712 16.7161 0.522259C16.7116 0.508806 16.7035 0.496821 16.6928 0.487589C16.682 0.478358 16.669 0.472227 16.655 0.469853C16.641 0.46748 16.6267 0.468953 16.6135 0.474116L0.780639 6.67021C0.68235 6.70804 0.598984 6.77673 0.543054 6.86597C0.487125 6.95521 0.46165 7.06018 0.470455 7.16513C0.479259 7.27008 0.521868 7.36934 0.591884 7.44802C0.6619 7.52669 0.755546 7.58053 0.858764 7.60146L5.46814 8.50537Z" stroke="var(--stroke-0, white)" stroke-width="0.9375" stroke-linecap="round" stroke-linejoin="round"/>
</svg>
