<svg preserveAspectRatio="none" width="100%" height="100%" overflow="visible" style="display: block;" viewBox="0 0 44.021 26.0138" fill="none" xmlns="http://www.w3.org/2000/svg">
<g id="Frame 2147225200">
<path id="Vector" d="M18.7398 12.8341L6.83983 25.6904C6.68996 25.8535 6.49018 25.9622 6.27183 25.9995C6.05348 26.0368 5.82892 26.0006 5.63341 25.8964C5.43789 25.7923 5.28248 25.6262 5.19157 25.4242C5.10065 25.2222 5.07938 24.9958 5.13108 24.7804L6.83983 17.5854L0.589833 14.7804C0.445143 14.7153 0.318012 14.6167 0.218942 14.4928C0.119872 14.3689 0.0517064 14.2232 0.0200761 14.0677C-0.0115541 13.9123 -0.00574118 13.7515 0.0370349 13.5987C0.0798109 13.446 0.158322 13.3056 0.266083 13.1891L12.1661 0.332871C12.3151 0.166423 12.5157 0.0546923 12.7356 0.0155029C12.9556 -0.0236865 13.1824 0.0119238 13.3797 0.116652C13.5771 0.221381 13.7337 0.389194 13.8246 0.59332C13.9155 0.797446 13.9354 1.02612 13.8811 1.24287L12.1698 8.43787L18.4198 11.2416C18.5647 11.3066 18.6921 11.4052 18.7913 11.5293C18.8905 11.6533 18.9588 11.7991 18.9904 11.9548C19.0221 12.1104 19.0162 12.2714 18.9733 12.4243C18.9303 12.5772 18.8516 12.7177 18.7436 12.8341H18.7398Z" fill="var(--fill-0, white)"/>
<path id="Vector_2" d="M43.7503 12.8341L31.8503 25.6904C31.7005 25.8535 31.5007 25.9622 31.2823 25.9995C31.064 26.0368 30.8394 26.0006 30.6439 25.8964C30.4484 25.7923 30.293 25.6262 30.2021 25.4242C30.1111 25.2222 30.0899 24.9958 30.1416 24.7804L31.8503 17.5854L25.6003 14.7804C25.4556 14.7153 25.3285 14.6167 25.2294 14.4928C25.1304 14.3689 25.0622 14.2232 25.0306 14.0677C24.9989 13.9123 25.0047 13.7515 25.0475 13.5987C25.0903 13.446 25.1688 13.3056 25.2766 13.1891L37.1766 0.332871C37.3256 0.166423 37.5261 0.0546923 37.7461 0.0155029C37.9661 -0.0236865 38.1929 0.0119238 38.3902 0.116652C38.5876 0.221381 38.7442 0.389194 38.8351 0.59332C38.926 0.797446 38.9458 1.02612 38.8916 1.24287L37.1803 8.43787L43.4303 11.2416C43.5752 11.3066 43.7026 11.4052 43.8018 11.5293C43.901 11.6533 43.9693 11.7991 44.0009 11.9548C44.0326 12.1104 44.0267 12.2714 43.9838 12.4243C43.9408 12.5772 43.8621 12.7177 43.7541 12.8341H43.7503Z" fill="var(--fill-0, white)"/>
</g>
</svg>
