<svg preserveAspectRatio="none" width="100%" height="100%" overflow="visible" style="display: block;" viewBox="0 0 103.722 107.277" fill="none" xmlns="http://www.w3.org/2000/svg">
<path id="Union" d="M51.8607 0C68.6923 1.37765e-05 81.5163 14.0262 83.2807 30.8317C83.3753 31.7323 83.4225 32.1825 83.6012 32.4821C83.7673 32.7606 83.9744 32.9513 84.2655 33.0939C84.5788 33.2474 85.0096 33.257 85.8713 33.2763C91.2871 33.3973 94.5946 33.8249 97.0619 35.3369C100.077 37.1847 102.302 40.083 103.306 43.4736C104.452 47.3434 103.138 52.2462 100.511 62.0508L95.2132 81.8213C92.7714 90.9344 91.5506 95.4915 88.9515 98.8789C86.6577 101.868 83.6173 104.202 80.1361 105.644C76.1913 107.278 71.4734 107.277 62.0384 107.277H41.683C32.2484 107.277 27.531 107.277 23.5863 105.644C20.1051 104.202 17.0647 101.868 14.7709 98.8789C12.1717 95.4915 10.9501 90.9346 8.50817 81.8213L3.21129 62.0508C0.584151 52.2462 -0.729901 47.3434 0.416369 43.4736C1.42077 40.083 3.64532 37.1846 6.66051 35.3369C9.12758 33.8251 12.4344 33.3974 17.8491 33.2763C18.7108 33.257 19.1416 33.2474 19.4549 33.0939C19.7461 32.9513 19.9532 32.7606 20.1192 32.4822C20.2979 32.1825 20.3452 31.7323 20.4397 30.8317C22.2042 14.0262 35.0291 2.86129e-05 51.8607 0ZM51.8607 12.5215C43.0929 12.5215 34.84 19.8144 33.0925 30.554C32.957 31.3869 32.8892 31.8033 33.037 32.198C33.1589 32.5234 33.433 32.8457 33.7345 33.0182C34.1004 33.2275 34.5629 33.2275 35.4878 33.2275H68.2336C69.1585 33.2275 69.621 33.2275 69.9869 33.0182C70.2884 32.8457 70.5625 32.5234 70.6844 32.198C70.8322 31.8033 70.7644 31.3869 70.6289 30.554C68.8814 19.8144 60.6285 12.5215 51.8607 12.5215Z" fill="var(--fill-0, #111111)"/>
</svg>
