<svg preserveAspectRatio="none" width="100%" height="100%" overflow="visible" style="display: block;" viewBox="0 0 89.9713 22.9313" fill="none" xmlns="http://www.w3.org/2000/svg">
<g id="Group">
<path id="Vector" d="M34.378 0.516113L26.6133 20.8989H30.7861L32.3975 16.6418H40.6414L42.2451 20.8989H46.3862L38.6504 0.516113H34.378ZM33.8114 12.901L36.5281 5.72859L39.2294 12.901H33.8114Z" fill="var(--fill-0, #BBBABC)"/>
<path id="Vector_2" d="M82.5906 6.32202C81.1303 6.32202 79.7032 6.75696 78.4893 7.57189C77.2755 8.38675 76.3297 9.54505 75.7713 10.9001C75.2122 12.2552 75.0665 13.7463 75.3508 15.1849C75.6357 16.6235 76.3387 17.945 77.3713 18.9821C78.4032 20.0193 79.7183 20.7256 81.1502 21.0118C82.5821 21.2979 84.0665 21.151 85.4153 20.5897C86.7634 20.0284 87.9165 19.0779 88.7273 17.8583C89.5387 16.6388 89.9713 15.2049 89.9713 13.7381C89.9713 11.7712 89.1936 9.88496 87.8098 8.49419C86.4255 7.10335 84.5478 6.32202 82.5906 6.32202ZM82.5906 17.3518C81.8791 17.3518 81.1839 17.1399 80.593 16.743C80.0014 16.346 79.5406 15.7818 79.2683 15.1216C78.996 14.4615 78.9249 13.7351 79.064 13.0343C79.2026 12.3335 79.5448 11.6898 80.0478 11.1845C80.5508 10.6793 81.1912 10.3352 81.8887 10.1958C82.5863 10.0564 83.3092 10.1279 83.9665 10.4014C84.6231 10.6748 85.1851 11.1379 85.5803 11.7319C85.9749 12.3261 86.1857 13.0245 86.1857 13.7391C86.1869 14.2137 86.0942 14.6839 85.914 15.1225C85.7333 15.5611 85.4689 15.9597 85.1345 16.2953C84.8008 16.631 84.4038 16.8971 83.9671 17.0784C83.5309 17.2596 83.0628 17.3525 82.5906 17.3518Z" fill="var(--fill-0, #BBBABC)"/>
<path id="Vector_3" d="M51.3584 15.6421L47.988 6.5791H44.008L49.4327 20.8989H53.3811L58.7089 6.5791H54.7289L51.3584 15.6421Z" fill="var(--fill-0, #BBBABC)"/>
<path id="Vector_4" d="M71.2273 2.77392H67.44V6.57927H65.2255V9.99844H67.44V16.094C67.44 19.5449 69.3339 21.0281 71.9978 21.0281C72.9014 21.0413 73.7978 20.8654 74.6303 20.5119V16.9647C74.1773 17.1325 73.6996 17.2214 73.2171 17.2276C72.0671 17.2276 71.2273 16.7759 71.2273 15.2281V9.99844H74.6303V6.57927H71.2273V2.77392Z" fill="var(--fill-0, #BBBABC)"/>
<path id="Vector_5" d="M61.8225 5.54764C63.3472 5.54764 64.5833 4.30576 64.5833 2.77382C64.5833 1.24188 63.3472 0 61.8225 0C60.2978 0 59.0617 1.24188 59.0617 2.77382C59.0617 4.30576 60.2978 5.54764 61.8225 5.54764Z" fill="var(--fill-0, #BBBABC)"/>
<path id="Vector_6" d="M63.7165 6.5791H59.9292V20.8989H63.7165V6.5791Z" fill="var(--fill-0, #BBBABC)"/>
<path id="Vector_7" d="M7.38305 22.9313C11.4606 22.9313 14.7661 19.6101 14.7661 15.5132C14.7661 11.4163 11.4606 8.09521 7.38305 8.09521C3.30551 8.09521 0 11.4163 0 15.5132C0 19.6101 3.30551 22.9313 7.38305 22.9313Z" fill="var(--fill-0, #BBBABC)"/>
<path id="Vector_8" d="M20.1908 21.9951C22.6547 21.9951 24.6521 19.9882 24.6521 17.5126C24.6521 15.037 22.6547 13.0302 20.1908 13.0302C17.7269 13.0302 15.7295 15.037 15.7295 17.5126C15.7295 19.9882 17.7269 21.9951 20.1908 21.9951Z" fill="var(--fill-0, #BBBABC)"/>
<path id="Vector_9" d="M8.79505 7.12821C10.3198 7.12821 11.5558 5.88633 11.5558 4.35439C11.5558 2.82245 10.3198 1.58056 8.79505 1.58056C7.27035 1.58056 6.03434 2.82245 6.03434 4.35439C6.03434 5.88633 7.27035 7.12821 8.79505 7.12821Z" fill="var(--fill-0, #BBBABC)"/>
<path id="Vector_10" d="M18.4576 12.0623C21.7728 12.0623 24.4603 9.36204 24.4603 6.03116C24.4603 2.70023 21.7728 0 18.4576 0C15.1424 0 12.4549 2.70023 12.4549 6.03116C12.4549 9.36204 15.1424 12.0623 18.4576 12.0623Z" fill="var(--fill-0, #BBBABC)"/>
</g>
</svg>
