<svg preserveAspectRatio="none" width="100%" height="100%" overflow="visible" style="display: block;" viewBox="0 0 103.722 107.277" fill="none" xmlns="http://www.w3.org/2000/svg">
<path id="Union" d="M51.8609 0C68.6922 0.000264908 81.5155 14.0263 83.2799 30.8317C83.3744 31.7322 83.4217 32.1825 83.6004 32.4821C83.7664 32.7605 83.9736 32.9513 84.2647 33.0939C84.578 33.2474 85.0088 33.257 85.8705 33.2763C91.2864 33.3973 94.5937 33.8249 97.061 35.3369C100.076 37.1846 102.301 40.083 103.305 43.4736C104.451 47.3434 103.138 52.2462 100.511 62.0508L95.2134 81.8213C92.7715 90.9346 91.5499 95.4915 88.9507 98.8789C86.6569 101.868 83.6164 104.202 80.1353 105.644C76.1906 107.277 71.4732 107.277 62.0386 107.277H41.6831C32.2482 107.277 27.5302 107.278 23.5855 105.644C20.1043 104.202 17.0638 101.868 14.77 98.8789C12.171 95.4915 10.9502 90.9344 8.50832 81.8213L3.21046 62.0508C0.583324 52.2462 -0.729751 47.3434 0.416518 43.4736C1.4209 40.0832 3.64471 37.1846 6.65968 35.3369C9.12683 33.825 12.4341 33.3973 17.8492 33.2763C18.7109 33.257 19.1418 33.2474 19.4551 33.0939C19.7462 32.9513 19.9533 32.7606 20.1194 32.4821C20.298 32.1825 20.3453 31.7323 20.4399 30.8317C22.2043 14.0261 35.0293 0 51.8609 0ZM51.8609 12.5215C43.0931 12.5215 34.8402 19.8144 33.0926 30.554C32.9571 31.3869 32.8893 31.8033 33.0372 32.198C33.159 32.5234 33.4331 32.8457 33.7347 33.0182C34.1005 33.2275 34.563 33.2275 35.488 33.2275H68.2328C69.1577 33.2275 69.6202 33.2275 69.986 33.0182C70.2876 32.8457 70.5617 32.5234 70.6836 32.198C70.8314 31.8033 70.7636 31.3869 70.6281 30.554C68.8807 19.8146 60.6285 12.5217 51.8609 12.5215Z" fill="var(--fill-0, #111111)"/>
</svg>
