<svg preserveAspectRatio="none" width="100%" height="100%" overflow="visible" style="display: block;" viewBox="0 0 14.5818 14.5818" fill="none" xmlns="http://www.w3.org/2000/svg">
<path id="Vector" d="M13.9568 9.44298C13.4759 9.53759 12.9868 9.58521 12.4967 9.58517C11.3882 9.58424 10.2937 9.33782 9.29178 8.86361C8.28986 8.38941 7.4054 7.69919 6.70195 6.84254C5.99849 5.98588 5.49349 4.98406 5.22323 3.90904C4.95297 2.83402 4.92416 1.71249 5.13886 0.62501C4.05401 1.02172 3.0866 1.68537 2.32597 2.55469C1.56534 3.42401 1.036 4.47097 0.786844 5.59888C0.537684 6.7268 0.576733 7.89932 0.900384 9.00816C1.22404 10.117 1.82186 11.1264 2.63864 11.9432C3.45543 12.76 4.46484 13.3578 5.57368 13.6815C6.68252 14.0051 7.85504 14.0442 8.98296 13.795C10.1109 13.5458 11.1578 13.0165 12.0271 12.2559C12.8965 11.4952 13.5601 10.5278 13.9568 9.44298Z" stroke="var(--stroke-0, white)" stroke-width="1.25" stroke-linecap="round" stroke-linejoin="round"/>
</svg>
